<svg width="209" height="265" viewBox="0 0 209 265" fill="none" xmlns="http://www.w3.org/2000/svg">
<mask id="mask0_5_2" style="mask-type:luminance" maskUnits="userSpaceOnUse" x="109" y="24" width="65" height="150">
<path d="M109.283 173.977H173.924V24.592H109.283V173.977Z" fill="white"/>
</mask>
<g mask="url(#mask0_5_2)">
<path d="M165.945 149.916C163.962 150.927 161.857 152.142 159.671 153.133C152.852 156.23 145.667 157.545 138.24 156.614C128.506 155.38 121.363 150.341 117.275 141.274C115.595 137.551 114.867 133.605 114.401 129.577C114.098 127.048 113.956 124.518 114.199 121.989C114.543 118.144 116.283 114.926 118.772 112.052C122.253 108.025 126.584 105.192 131.603 103.492C135.124 102.278 138.605 102.419 141.741 104.747C142.227 105.131 142.672 105.576 143.097 106.103C139.697 104.261 136.035 103.876 132.21 103.674C132.453 104.909 132.878 105.981 133.545 106.973C135.205 109.361 137.552 110.575 140.325 111.061C143.381 111.567 146.416 111.425 149.431 110.696C149.533 110.676 149.634 110.636 149.816 110.575C149.553 110.15 149.33 109.765 149.108 109.401C147.974 107.539 146.78 105.738 145.222 104.2C142.773 101.792 139.859 100.477 136.399 100.578C129.619 100.78 123.65 103.188 118.368 107.398C116.688 108.754 115.13 110.211 113.875 111.991C113.835 112.052 113.754 112.093 113.632 112.214C114.361 108.227 115.676 104.565 117.578 101.104C119.703 97.178 122.638 93.8591 125.592 90.5605C127.252 88.6987 129.033 86.8976 130.753 85.0763C130.935 84.8942 131.097 84.6918 131.198 84.4287C123.002 88.5773 116.303 94.3448 111.487 102.318C111.426 101.266 111.366 100.214 111.325 99.1612C111.082 93.9603 110.88 88.7594 110.617 83.5585C110.435 80.3004 110.131 77.0422 109.909 73.7638C109.888 73.5614 110.03 73.1972 110.192 73.1162C112.175 72.2056 113.167 70.5664 113.572 68.5427C114.138 65.7297 113.936 62.9168 112.924 60.286C112.135 58.2218 110.961 56.3195 109.969 54.3565C109.767 53.9923 109.565 53.6078 109.301 53.1423C108.917 53.9316 108.553 54.6196 108.209 55.3279C107.156 57.473 106.043 59.5979 105.497 61.9252C104.91 64.475 104.647 67.0249 105.578 69.5545C106.124 71.0318 106.974 72.2865 108.492 72.9948C108.654 73.0555 108.775 73.3995 108.775 73.6019C108.532 77.3862 108.229 81.1705 107.986 84.9549C107.683 89.7106 107.419 94.4865 107.116 99.2422C107.055 100.254 106.994 101.266 106.873 102.278C102.158 94.3853 95.8034 88.3344 87.567 84.3275C87.513 84.3815 87.4523 84.4422 87.3848 84.5096C87.5872 84.7323 87.7896 84.9549 88.0122 85.1572C92.0191 89.1237 95.8641 93.252 99.0211 97.9672C101.915 102.298 103.777 107.074 104.789 112.234C104.647 112.072 104.505 111.911 104.364 111.728C98.9604 105.151 91.9382 101.549 83.5196 100.618C80.8078 100.315 78.1567 100.679 75.7688 102.156C74.251 103.107 73.0368 104.382 71.944 105.758C70.8714 107.114 69.9203 108.571 68.9287 109.988C68.8073 110.17 68.7263 110.352 68.5644 110.676C69.637 110.838 70.6084 111.081 71.5797 111.142C74.0284 111.324 76.4771 111.486 78.9055 110.939C82.6291 110.13 85.098 107.904 86.2111 104.22C86.3932 103.593 86.292 103.532 85.6444 103.634C83.985 103.876 82.3458 104.079 80.7066 104.342C79.1079 104.585 77.6104 105.131 76.1735 105.88C75.9914 105.961 75.789 106.022 75.6069 106.082C75.5799 106.042 75.5462 105.995 75.5057 105.941C75.6271 105.819 75.7283 105.657 75.8497 105.536C77.7115 103.897 79.8364 102.824 82.3458 102.763C84.2886 102.723 86.1706 103.188 87.9717 103.917C91.8977 105.495 95.5201 107.539 98.5152 110.575C102.583 114.663 104.627 119.499 104.262 125.348C103.959 130.468 103.23 135.507 101.267 140.263C97.2605 149.956 89.9145 155.4 79.5733 156.715C75.789 157.201 71.944 156.978 68.1597 156.371C67.593 156.29 67.0264 156.047 66.5407 155.764C56.5032 149.997 48.8941 141.861 43.0253 131.986C37.8649 123.344 34.7079 114.015 33.089 104.119C31.0248 91.6128 32.3807 79.4504 36.509 67.5308C38.6339 61.3788 41.5278 55.591 45.2109 50.2282C46.0204 49.0342 56.6044 33.2898 59.2554 30.6792C59.9232 30.0317 60.6517 29.465 61.3398 28.8377C61.2993 28.7972 61.2656 28.75 61.2386 28.696C61.0767 28.7972 44.4217 43.2667 38.6946 52.6971C34.6675 59.3146 31.9152 66.4785 30.0939 74.0067C28.1916 81.8586 27.4428 89.8117 28.0297 97.8863C29.082 112.457 33.5139 125.874 41.7504 138.016C45.3323 143.278 49.3595 148.195 54.1557 152.405C64.4563 161.511 76.2545 167.927 89.5704 171.428C96.9367 173.35 104.424 174.2 112.054 173.917C118.611 173.674 125.005 172.52 131.299 170.659C140.507 167.886 149.006 163.677 156.757 157.95C160.096 155.481 163.152 152.688 165.945 149.916Z" fill="white"/>
<path d="M153.196 76.2328C151.941 76.6577 150.828 77.0625 149.674 77.4065C146.457 78.3779 143.279 79.4504 140.305 81.0492C137.35 82.6074 134.841 84.6918 132.959 87.4845C131.623 89.4475 130.267 91.37 128.891 93.3532C130.044 94.3044 131.4 94.9722 132.878 95.3162C136.5 96.1662 139.697 95.1948 142.612 93.0497C145.323 91.026 147.084 88.2333 148.521 85.2585C149.937 82.3241 151.233 79.3493 152.993 76.597C153.054 76.5161 153.094 76.4351 153.196 76.2328Z" fill="white"/>
<path d="M145.789 73.865C146.72 73.865 147.59 73.9055 148.46 73.8448C151.819 73.602 154.814 72.4687 157.405 70.2426C159.975 68.0773 161.553 65.2845 162.646 62.1681C163.699 59.173 164.265 56.0767 164.852 52.9602C164.852 52.9197 164.832 52.8793 164.791 52.7376C163.699 53.0209 162.585 53.2638 161.493 53.5876C157.567 54.7613 154.086 56.6636 151.475 59.9015C149.755 62.0264 148.683 64.4751 147.853 67.0452C147.205 69.1093 146.578 71.1735 145.93 73.2377C145.89 73.4198 145.849 73.602 145.789 73.865Z" fill="white"/>
<path d="M133.282 34.4433C131.481 35.7992 129.822 37.0134 128.223 38.2884C125.471 40.5144 123.488 43.2869 122.516 46.7069C121.565 49.9651 121.808 53.1828 123.063 56.3195C123.447 57.2707 124.095 57.5742 125.289 57.4326C126.766 57.2302 128.061 56.6028 129.255 55.7529C132.392 53.5471 134.011 50.4306 134.557 46.7272C135.063 43.125 134.557 39.6038 133.687 36.1028C133.566 35.6373 133.444 35.1516 133.282 34.4433Z" fill="white"/>
<path d="M109.382 24.5879C109.018 25.0129 108.796 25.2557 108.573 25.5188C106.873 27.7044 105.295 29.971 104.546 32.6625C103.433 36.548 103.797 40.2716 106.327 43.5702C107.136 44.6225 108.128 45.432 109.565 45.3511C110.88 45.2701 111.791 44.4606 112.539 43.4893C113.713 41.931 114.401 40.1502 114.624 38.2277C115.049 34.6862 114.057 31.4887 112.195 28.5341C111.487 27.4009 110.637 26.3485 109.848 25.276C109.706 25.0736 109.585 24.8712 109.382 24.5879Z" fill="white"/>
<path d="M146.517 61.6216C145.586 62.0264 144.635 62.4109 143.725 62.8156C140.163 64.4548 136.925 66.5392 134.213 69.4129C132.25 71.4771 130.975 73.8853 130.449 76.678C130.247 77.7505 130.004 78.8028 129.741 80.0575C130.975 80.0171 132.109 80.0575 133.222 79.8956C138.058 79.1266 141.215 76.1518 143.077 71.8413C144.332 68.9474 145.202 65.8916 146.254 62.9168C146.389 62.5256 146.524 62.1411 146.659 61.7633C146.605 61.7228 146.558 61.6756 146.517 61.6216Z" fill="white"/>
<path d="M169.648 70.789C167.625 71.4366 165.662 72.0032 163.739 72.6913C161.614 73.4401 159.651 74.4924 157.992 76.0506C155.664 78.2362 154.167 80.8468 154.207 84.1657C154.207 84.6311 154.126 85.1168 154.147 85.5823C154.167 85.7644 154.309 86.0477 154.43 86.0679C156.737 86.4322 159.064 86.6548 161.189 85.3596C163.415 83.9835 165.176 82.1015 166.491 79.8349C168.07 77.1434 168.98 74.2091 169.668 71.214C169.689 71.133 169.668 71.0521 169.648 70.789Z" fill="white"/>
<path d="M135.427 54.4578C132.959 56.5017 130.51 58.3837 128.243 60.4681C125.289 63.1394 123.892 66.519 124.378 70.5462C124.378 70.5866 124.378 70.6271 124.378 70.6878C124.58 72.1651 124.985 72.4687 126.442 72.327C129.498 72.0437 131.663 70.4248 133.262 67.8951C134.901 65.325 135.448 62.4311 135.549 59.4765C135.63 57.7766 135.468 56.097 135.427 54.4578Z" fill="white"/>
<path d="M153.438 93.5556C159.246 98.7565 167.989 99.7279 174.019 93.1913C173.655 93.0092 173.331 92.8271 172.987 92.6652C170.134 91.3295 167.179 90.3177 164.022 89.9939C160.703 89.6701 157.587 90.1355 154.956 92.4223C154.491 92.8271 153.944 93.1711 153.438 93.5556Z" fill="white"/>
<path d="M165.277 102.683C162.95 101.569 160.663 100.497 158.396 99.3636C156.919 98.6553 155.401 98.1292 153.782 97.9066C150.544 97.4613 147.691 98.2708 145.202 100.537C145.586 100.902 145.971 101.266 146.376 101.61C147.651 102.682 148.865 103.836 150.221 104.787C152.609 106.426 155.341 106.548 158.113 106.103C160.602 105.698 162.849 104.625 164.872 103.107C164.967 103.027 165.061 102.946 165.156 102.865C165.196 102.824 165.216 102.784 165.277 102.683Z" fill="white"/>
<path d="M123.508 73.4401C119.946 75.6054 116.85 78.0136 115.494 82.061C114.765 84.2669 115.15 86.4322 115.615 88.5976C115.656 88.719 116.02 88.8809 116.202 88.8404C118.833 88.4761 120.796 87.1405 122.091 84.8335C123.184 82.8907 123.467 80.7456 123.569 78.56C123.629 77.0018 123.589 75.4435 123.589 73.8853C123.589 73.7841 123.548 73.6829 123.508 73.4401Z" fill="white"/>
<path d="M146.699 44.3595C145.829 44.7642 145.04 45.088 144.291 45.513C142.126 46.707 140.143 48.1033 139.09 50.471C138.584 51.5436 138.261 52.6566 138.261 53.8506C138.261 54.9299 138.288 56.0092 138.342 57.0885C138.362 57.2707 138.564 57.5742 138.686 57.5742C140.689 57.7159 142.571 57.3516 144.089 55.8946C145.647 54.3565 146.477 52.4543 146.74 50.3091C146.983 48.4069 146.983 46.4844 146.699 44.3595Z" fill="white"/>
<path d="M114.34 58.1814C116.364 57.2505 118.428 56.4612 119.4 54.3364C119.845 53.365 120.189 52.2924 120.229 51.2401C120.351 48.589 120.27 45.9178 120.27 43.1453C117.599 44.5012 115.332 46.2011 113.895 48.8521C112.195 52.0091 113.147 55.0649 114.34 58.1814Z" fill="white"/>
<path d="M122.273 61.3586C119.42 63.018 116.85 64.8191 115.959 68.2594C115.717 69.2307 116.223 72.2258 116.708 73.2579C119.319 73.0353 121.383 71.133 122.01 68.2998C122.516 66.1142 122.476 63.8679 122.395 61.6419C122.395 61.5812 122.354 61.5204 122.273 61.3586Z" fill="white"/>
<path d="M124.074 30.3757C121.181 31.6709 118.59 34.1195 118.874 37.1551C118.955 38.0658 119.278 38.9562 119.501 39.8669C119.602 40.2918 119.865 40.3728 120.27 40.2716C122.314 39.7454 123.609 38.43 124.115 36.4266C124.621 34.4636 124.378 32.4399 124.074 30.3757Z" fill="white"/>
<path d="M153.944 88.7392C150.059 89.0023 147.084 91.1069 146.72 93.4747C149.128 94.4056 153.54 91.5521 153.944 88.7392Z" fill="white"/>
<path d="M121.504 57.3111C119.339 58.1004 117.093 60.7109 117.113 62.512C118.914 61.0145 121.423 60.2657 121.504 57.3111Z" fill="white"/>
</g>
<path d="M106.873 31.6911H106.853C106.853 31.6911 106.853 31.6911 106.833 31.6911C106.63 31.6911 106.468 32.1161 106.468 32.6625C106.468 33.1887 106.63 33.6136 106.833 33.6136C106.853 33.6136 106.833 33.6136 106.853 33.6136H106.873H111.062V31.6911H106.873Z" fill="white"/>
<path d="M106.873 64.2727H106.853C106.853 64.2727 106.853 64.2727 106.833 64.2727C106.63 64.2727 106.468 64.6977 106.468 65.2441C106.468 65.7702 106.63 66.1952 106.833 66.1952C106.853 66.1952 106.833 66.1952 106.853 66.1952H106.873H111.062V64.2727H106.873Z" fill="white"/>
<path d="M106.873 116.889H106.853C106.853 116.889 106.853 116.889 106.833 116.889C106.63 116.889 106.468 117.314 106.468 117.86C106.468 118.386 106.63 118.811 106.833 118.811C106.853 118.811 106.833 118.811 106.853 118.811H106.873H111.062V116.889H106.873Z" fill="white"/>
<path d="M73.8058 81.4539C70.831 79.8552 67.6537 78.7827 64.4361 77.8113C63.2825 77.4673 62.1695 77.0625 60.9148 76.6375C61.016 76.8399 61.0565 76.9209 61.1172 77.0018C62.8778 79.754 64.173 82.7289 65.5896 85.6632C67.0264 88.6381 68.787 91.4308 71.4988 93.4545C74.4129 95.5996 77.6103 96.571 81.2328 95.721C82.7101 95.377 84.0659 94.7092 85.2195 93.758C83.8433 91.7748 82.4875 89.8523 81.1518 87.8893C79.2698 85.0966 76.7604 83.0122 73.8058 81.4539Z" fill="white"/>
<path d="M56.7055 70.6474C59.2959 72.8734 62.2909 74.0067 65.6503 74.2496C66.5205 74.3103 67.3907 74.2698 68.3216 74.2698C68.2609 74.0067 68.2204 73.8246 68.1799 73.6424C67.5323 71.5783 66.905 69.5141 66.2574 67.4499C65.4277 64.8798 64.3551 62.4311 62.635 60.3063C60.0244 57.0683 56.5436 55.1661 52.6177 53.9923C51.5249 53.6685 50.4118 53.4257 49.319 53.1424C49.2786 53.284 49.2583 53.3245 49.2583 53.365C49.8452 56.4815 50.4118 59.5777 51.4641 62.5728C52.5569 65.6893 54.1354 68.482 56.7055 70.6474Z" fill="white"/>
<path d="M84.8552 56.1577C86.0492 57.0076 87.3443 57.635 88.8216 57.8373C90.0156 57.979 90.6632 57.6754 91.0477 56.7243C92.3024 53.5876 92.5452 50.3699 91.5941 47.1117C90.6227 43.6917 88.6395 40.9192 85.8873 38.6931C84.2886 37.4182 82.6291 36.204 80.828 34.8481C80.6661 35.5564 80.5447 36.0421 80.4233 36.5075C79.5531 40.0085 79.0472 43.5298 79.5531 47.132C80.0995 50.8353 81.7185 53.9518 84.8552 56.1577Z" fill="white"/>
<path d="M101.915 28.9389C100.053 31.8935 99.0616 35.091 99.4865 38.6324C99.7091 40.555 100.397 42.3358 101.571 43.8941C102.32 44.8654 103.23 45.6749 104.546 45.7559C104.64 45.7559 104.735 45.7559 104.829 45.7559V33.6137H102.077C102.057 33.6137 102.077 33.6137 102.057 33.6137C101.915 33.6137 101.814 33.1887 101.814 32.6625C101.814 32.1161 101.915 31.6912 102.057 31.6912C102.077 31.6912 102.077 31.6912 102.077 31.6912H104.829V25.1141C104.789 25.0737 104.755 25.0332 104.728 24.9927C104.526 25.276 104.404 25.4784 104.262 25.6808C103.493 26.7533 102.623 27.8056 101.915 28.9389Z" fill="white"/>
<path d="M79.8971 69.8176C77.1854 66.944 73.9475 64.8596 70.3857 63.2204C69.4751 62.8156 68.5239 62.4311 67.593 62.0264C67.5526 62.0804 67.5053 62.1276 67.4514 62.1681C67.5863 62.5458 67.7212 62.9303 67.8561 63.3216C68.9084 66.2964 69.7786 69.3522 71.0333 72.2461C72.8951 76.5566 76.0521 79.5314 80.8887 80.3004C82.0018 80.4623 83.135 80.4218 84.3695 80.4623C84.1064 79.2076 83.8636 78.1553 83.6612 77.0827C83.135 74.29 81.8601 71.8818 79.8971 69.8176Z" fill="white"/>
<path d="M56.1186 76.4554C54.4592 74.8972 52.4962 73.8448 50.3713 73.0961C48.4488 72.408 46.4858 71.8414 44.4621 71.1938C44.4419 71.4569 44.4217 71.5378 44.4419 71.6188C45.13 74.6138 46.0406 77.5482 47.6191 80.2397C48.9345 82.5063 50.6951 84.3883 52.9212 85.7644C55.0461 87.0596 57.3733 86.837 59.6804 86.4727C59.8018 86.4525 59.9434 86.1692 59.9637 85.987C59.9839 85.5216 59.903 85.0359 59.903 84.5704C59.9434 81.2516 58.4459 78.641 56.1186 76.4554Z" fill="white"/>
<path d="M80.8483 68.2999C82.447 70.8295 84.6124 72.4485 87.6681 72.7318C89.1252 72.8735 89.5299 72.5699 89.7323 71.0926C89.7323 71.0319 89.7323 70.9914 89.7323 70.951C90.218 66.9238 88.8216 63.5442 85.867 60.8729C83.6005 58.7885 81.1518 56.9065 78.6829 54.8625C78.6424 56.5017 78.4805 58.1814 78.5615 59.8813C78.6627 62.8359 79.2091 65.7298 80.8483 68.2999Z" fill="white"/>
<path d="M60.672 93.9604C60.166 93.5759 59.6197 93.2319 59.1542 92.8271C56.5234 90.5404 53.4069 90.0749 50.088 90.3987C46.9311 90.7225 43.9765 91.7343 41.123 93.07C40.7992 93.2116 40.4957 93.3735 40.1921 93.5557V93.6973C46.2025 100.112 54.9044 99.1208 60.672 93.9604Z" fill="white"/>
<path d="M49.2583 103.512C51.2618 105.03 53.5081 106.103 55.9972 106.507C58.7697 106.953 61.5017 106.831 63.8897 105.192C65.2455 104.241 66.4598 103.087 67.7347 102.015C68.1394 101.671 68.5239 101.306 68.9084 100.942C66.4193 98.6756 63.5659 97.8661 60.3279 98.3113C58.709 98.534 57.1912 99.0601 55.7139 99.7684C53.4474 100.902 51.1606 101.974 48.8333 103.087C48.894 103.188 48.9143 103.229 48.9548 103.269C49.0492 103.35 49.1504 103.431 49.2583 103.512Z" fill="white"/>
<path d="M90.6025 73.8448C90.562 74.0877 90.5216 74.1889 90.5216 74.2901C90.5216 75.8483 90.4811 77.4066 90.5418 78.9648C90.643 81.1504 90.9263 83.2955 92.0191 85.2383C93.3143 87.5453 95.2772 88.8809 97.9081 89.2452C98.0902 89.2857 98.4545 89.1238 98.4949 89.0024C98.9604 86.837 99.3449 84.6716 98.6163 82.4658C97.2605 78.4184 94.1642 76.0102 90.6025 73.8448Z" fill="white"/>
<path d="M70.0215 56.2993C71.5392 57.7564 73.4213 58.1206 75.4248 57.979C75.5462 57.979 75.7485 57.6754 75.7688 57.4933C75.8227 56.414 75.8497 55.3347 75.8497 54.2554C75.8497 53.0614 75.5259 51.9484 75.02 50.8758C73.9677 48.5081 71.9845 47.1117 69.8191 45.9177C69.0703 45.4927 68.2811 45.169 67.4109 44.7642C67.1276 46.8891 67.1276 48.8116 67.3704 50.7139C67.6335 52.859 68.4632 54.7613 70.0215 56.2993Z" fill="white"/>
<path d="M93.8809 51.6448C93.9214 52.6972 94.2654 53.7697 94.7106 54.7411C95.682 56.866 97.7462 57.6552 99.7699 58.5861C100.964 55.4696 101.915 52.4138 100.215 49.2569C98.7783 46.6058 96.5117 44.9059 93.8404 43.55C93.8404 46.3225 93.7595 48.9938 93.8809 51.6448Z" fill="white"/>
<path d="M91.7155 62.0467C91.6346 64.2727 91.5941 66.519 92.1 68.7046C92.7274 71.5378 94.7916 73.4401 97.4021 73.6627C97.8878 72.6306 98.3938 69.6355 98.1509 68.6641C97.2605 65.2239 94.6904 63.4228 91.837 61.7633C91.756 61.9252 91.7155 61.9859 91.7155 62.0467Z" fill="white"/>
<path d="M93.8404 40.6764C94.2452 40.7776 94.5082 40.6966 94.6094 40.2716C94.832 39.361 95.1558 38.4705 95.2368 37.5599C95.5201 34.5243 92.9298 32.0757 90.0359 30.7805C89.7323 32.8447 89.4895 34.8684 89.9954 36.8313C90.5013 38.8348 91.7965 40.1502 93.8404 40.6764Z" fill="white"/>
<path d="M67.3907 93.8794C67.0264 91.5117 64.0516 89.4071 60.1661 89.144C60.5708 91.9569 64.9825 94.8103 67.3907 93.8794Z" fill="white"/>
<path d="M92.606 57.7159C92.6869 60.6705 95.1963 61.4193 96.9974 62.9168C97.0176 61.1158 94.7713 58.5052 92.606 57.7159Z" fill="white"/>
<path d="M104.91 33.6136V31.6911H104.829V33.6136H104.91Z" fill="white"/>
<path d="M104.91 118.811V116.889H104.829V118.811H104.91Z" fill="white"/>
<path d="M104.91 157.262V155.339H104.829V157.262H104.91Z" fill="white"/>
<path d="M102.057 64.2727C102.077 64.2727 102.077 64.2727 102.077 64.2727H104.829V53.5876C104.829 53.5741 104.822 53.5606 104.809 53.5471C104.546 54.0126 104.343 54.3971 104.141 54.7613C103.149 56.7243 101.976 58.6266 101.186 60.6908C100.175 63.3216 99.9722 66.1345 100.539 68.9475C100.944 70.9712 101.935 72.6104 103.918 73.521C104.08 73.602 104.222 73.9662 104.202 74.1686C103.979 77.447 103.676 80.7052 103.493 83.9633C103.23 89.1642 103.028 94.3651 102.785 99.5661C102.745 100.618 102.684 101.671 102.623 102.723C97.8069 94.7496 91.1084 88.9821 82.9124 84.8335C83.0136 85.0966 83.1755 85.299 83.3577 85.4811C85.0778 87.3024 86.8587 89.1035 88.5181 90.9653C91.4727 94.264 94.4071 97.5828 96.5319 101.509C98.4342 104.969 99.7496 108.632 100.498 112.619C100.357 112.497 100.276 112.457 100.235 112.396C98.9806 110.615 97.4224 109.158 95.7427 107.803C90.4608 103.593 84.4909 101.185 77.7115 100.983C74.251 100.881 71.3369 102.197 68.8882 104.605C67.33 106.143 66.136 107.944 65.0027 109.806C64.7801 110.17 64.5575 110.555 64.2944 110.98C64.4765 111.04 64.5777 111.081 64.6789 111.101C67.6942 111.83 70.7298 111.971 73.7856 111.465C76.558 110.98 78.9055 109.765 80.565 107.378C81.2328 106.386 81.6578 105.313 81.9006 104.079C78.0758 104.281 74.4129 104.666 71.0131 106.507C71.4381 105.981 71.8833 105.536 72.369 105.151C75.5057 102.824 78.9865 102.683 82.5077 103.897C87.5265 105.597 91.8572 108.43 95.338 112.457C97.8271 115.331 99.5675 118.548 99.9115 122.393C100.154 124.923 100.013 127.453 99.7092 129.982C99.2437 134.009 98.5152 137.956 96.8355 141.679C92.7476 150.745 85.604 155.784 75.87 157.019C68.443 157.95 61.2589 156.634 54.439 153.538C52.2534 152.547 50.1487 151.332 48.1655 150.32C50.9582 153.093 54.014 155.886 57.3531 158.355C65.1039 164.082 73.6034 168.291 82.8113 171.063C89.105 172.925 95.4999 174.079 102.057 174.322C102.988 174.362 103.912 174.382 104.829 174.382V157.262H102.077C102.057 157.262 102.077 157.262 102.057 157.262C101.915 157.262 101.814 156.837 101.814 156.311C101.814 155.764 101.915 155.339 102.057 155.339C102.077 155.339 102.077 155.339 102.077 155.339H104.829V118.811H102.077C102.057 118.811 102.077 118.811 102.057 118.811C101.915 118.811 101.814 118.386 101.814 117.86C101.814 117.314 101.915 116.889 102.057 116.889C102.077 116.889 102.077 116.889 102.077 116.889H104.829V66.1952H102.077C102.057 66.1952 102.077 66.1952 102.057 66.1952C101.915 66.1952 101.814 65.7703 101.814 65.2441C101.814 64.6977 101.915 64.2727 102.057 64.2727Z" fill="white"/>
<path d="M106.873 155.339H106.853C106.853 155.339 106.853 155.339 106.833 155.339C106.63 155.339 106.468 155.764 106.468 156.311C106.468 156.837 106.63 157.262 106.833 157.262C106.853 157.262 106.833 157.262 106.853 157.262H106.873H111.062V155.339H106.873Z" fill="white"/>
<path d="M204.942 93.839C204.84 97.3804 204.557 100.962 204.031 104.565C203.525 108.167 202.776 111.789 201.825 115.391C199.923 122.576 197.15 129.699 193.508 136.478C191.666 139.878 189.642 143.177 187.396 146.374C185.15 149.551 182.701 152.627 180.07 155.562C174.809 161.39 168.798 166.631 162.262 171.063C159.004 173.289 155.583 175.313 152.082 177.134C148.581 178.956 144.959 180.554 141.296 181.931C137.613 183.327 133.869 184.48 130.085 185.432C128.183 185.917 126.28 186.322 124.378 186.686C122.476 187.03 120.553 187.354 118.631 187.597C110.981 188.609 103.291 188.69 95.8034 187.981C88.336 187.273 81.0709 185.735 74.2308 183.55C65.9943 180.979 58.0007 177.256 50.5535 172.5C43.1063 167.704 36.2459 161.876 30.276 155.157C24.3061 148.438 19.2064 140.87 15.2197 132.734C11.233 124.599 8.33911 115.877 6.67967 106.912C6.2547 104.666 5.93091 102.419 5.66782 100.153C5.40474 97.8864 5.22261 95.6198 5.12142 93.333C5.08095 92.7664 5.08095 92.1998 5.06071 91.6331C5.03373 91.053 5.02024 90.4796 5.02024 89.913L5 88.2131L5.04048 86.4929L5.06071 85.643L5.08095 84.793C5.12142 84.2264 5.14166 83.6597 5.1619 83.0931C5.24285 81.9396 5.30356 80.8063 5.42498 79.6731C5.62735 77.4065 5.93091 75.1602 6.27493 72.9139C6.45707 71.7806 6.6392 70.6676 6.88204 69.5546C7.08441 68.4415 7.32726 67.3285 7.59034 66.2155C8.09626 64.0096 8.6629 61.824 9.33072 59.6587C9.9783 57.4933 10.7271 55.3684 11.5163 53.2435C11.9211 52.1912 12.3258 51.1389 12.771 50.1068L13.4186 48.5486L14.1066 47.0105L14.4709 46.2415L14.8352 45.4725L15.5637 43.9548L16.3327 42.4572L16.7172 41.7085L17.122 40.9597L17.9112 39.4824L18.7612 38.0253L19.1861 37.2968L19.6111 36.5885L20.5015 35.1517L21.4122 33.7351L21.8574 33.0268L22.3431 32.3387L23.274 30.9424L24.2656 29.5865L24.7513 28.9187L25.2572 28.2509L26.2691 26.9152L27.3012 25.5998L27.8273 24.9522L28.3737 24.3249L29.4463 23.0499L30.5391 21.7953L31.0855 21.1679L31.6521 20.5608L32.7854 19.3466C35.8614 16.1491 39.0791 13.1541 42.4992 10.4018C42.6206 10.5435 42.4587 10.928 42.2563 11.3934C42.0337 11.8387 41.7504 12.3648 41.6087 12.7493C41.4671 13.1338 41.4671 13.3969 41.7706 13.3564C41.9325 13.3362 42.1754 13.235 42.5194 13.0326C42.8432 12.8303 43.3086 12.5267 43.8955 12.122C46.2025 10.4423 48.3072 9.06618 50.1892 7.97338C51.1201 7.40675 52.0105 6.92106 52.8403 6.47585C53.67 6.03063 54.439 5.64613 55.1473 5.28187C58.0412 3.90575 60.0851 3.23793 61.4815 2.8939C64.2944 2.24632 64.598 2.91414 64.9217 3.58196C65.0027 3.74385 64.1123 4.29025 62.8373 4.97831C62.21 5.34258 61.4815 5.72708 60.7327 6.13182C60.3549 6.34768 59.9704 6.56354 59.5792 6.7794C59.3903 6.88733 59.2014 6.99527 59.0125 7.1032C58.8237 7.21113 58.6348 7.31906 58.4459 7.42699C55.5115 9.14713 53.245 10.6851 55.7341 9.5114C52.2736 11.6768 48.4286 14.5099 44.9681 17.5252C43.2479 19.0228 41.5885 20.5608 40.1314 22.0786C39.3827 22.8071 38.6946 23.5559 38.047 24.2642C37.3994 24.9725 36.7923 25.6605 36.2459 26.3081C35.6995 26.9557 35.1936 27.5628 34.7484 28.1092C34.3234 28.6758 33.9389 29.1615 33.6151 29.6067C32.9675 30.4769 32.583 31.084 32.4818 31.3269C32.3807 31.5495 32.5628 31.4483 33.1092 30.8817C33.6556 30.315 34.5663 29.3234 35.9626 27.8664C36.9947 26.9759 38.6339 25.2963 40.6778 23.313C42.7218 21.35 45.2109 19.1037 47.8417 17.0193C50.4523 14.9349 53.2045 13.0124 55.633 11.5553C56.2401 11.1911 56.827 10.8673 57.3936 10.5435C57.6769 10.3951 57.9467 10.2467 58.2031 10.0983C58.4729 9.96336 58.7292 9.83519 58.9721 9.71377C59.478 9.47092 59.9435 9.24832 60.3482 9.08642C60.7799 8.91103 61.1577 8.77612 61.4815 8.68168C61.7918 8.57375 62.0616 8.49955 62.2909 8.45907C62.5068 8.4186 62.6822 8.40511 62.8171 8.4186C63.0802 8.4186 63.1814 8.54002 63.1814 8.68168C63.1611 9.00547 62.7159 9.55187 62.2707 10.1185C61.8457 10.6851 61.4005 11.2315 61.4005 11.5553C61.4005 11.8791 61.8255 11.9398 63.0802 11.5756C65.3063 10.3209 68.7465 8.58049 72.3083 7.12343C74.0891 6.37466 75.8902 5.72708 77.5496 5.14021C79.2293 4.59381 80.7471 4.10812 81.9815 3.76409C84.5516 3.4403 83.4386 4.33073 82.366 5.09973C81.8196 5.48423 81.2732 5.86874 81.1721 6.05087C81.1113 6.15205 81.1721 6.19253 81.3947 6.17229C81.597 6.15206 81.9815 6.05087 82.5886 5.88898C83.0473 5.79454 83.5061 5.69335 83.9648 5.58542C84.437 5.47749 84.9092 5.37631 85.3813 5.28187C85.6242 5.2279 85.867 5.17394 86.1099 5.11997C86.3527 5.0795 86.5956 5.03902 86.8384 4.99855C87.3241 4.90411 87.8098 4.80967 88.2955 4.71523C90.2787 4.35096 92.3361 4.04066 94.4678 3.78433C98.6973 3.2784 103.21 2.99509 107.865 3.09627C112.519 3.17722 117.315 3.66291 122.132 4.55333C126.928 5.44376 131.744 6.7794 136.399 8.51979C136.277 8.86381 137.39 9.67329 137.269 9.97685C137.229 10.1387 136.864 10.159 135.873 9.93638C135.427 9.83519 134.82 9.69353 134.051 9.47092C133.282 9.24832 132.331 8.98524 131.157 8.66144C120.978 5.50447 110.192 4.35096 99.5877 5.22115C88.9633 6.11158 78.5008 9.04595 68.9489 13.8219C59.3768 18.5776 50.7559 25.1951 43.6729 33.1684C40.1314 37.1754 36.9745 41.4859 34.2627 46.0999C31.5509 50.6937 29.2844 55.5506 27.4833 60.5896C25.6822 65.6286 24.3668 70.8295 23.5573 76.1113C22.7478 81.373 22.4443 86.7155 22.6669 92.0581C23.0919 102.703 25.6215 113.287 30.0129 123C34.4044 132.734 40.6576 141.618 48.3476 148.965C56.0377 156.331 65.1646 162.159 75.0605 166.105C84.9766 170.051 95.5808 172.075 106.205 172.014C116.809 171.974 127.414 169.849 137.249 165.842C147.064 161.815 156.11 155.926 163.699 148.56C171.287 141.194 177.439 132.37 181.709 122.697C186 113.003 188.469 102.541 188.833 91.9974C189.217 81.4741 187.558 70.87 183.996 60.9538C180.455 51.0175 175.011 41.7894 168.049 33.897C161.108 26.0046 152.649 19.468 143.279 14.7325C139.009 12.5267 136.5 11.4542 135.529 10.847C134.982 10.5232 134.841 10.3614 135.043 10.3006C135.151 10.2737 135.34 10.2737 135.61 10.3006C135.873 10.3411 136.176 10.3816 136.561 10.4625C136.938 10.5435 137.384 10.6379 137.896 10.7459C138.382 10.8808 138.928 11.0359 139.536 11.2113C140.73 11.5553 142.106 12.0208 143.583 12.5672C143.772 12.6346 143.961 12.7088 144.15 12.7898C144.338 12.8572 144.527 12.9315 144.716 13.0124C145.094 13.1608 145.478 13.316 145.87 13.4778C146.274 13.6397 146.659 13.8219 147.064 14.004C147.468 14.1861 147.873 14.348 148.278 14.5302C149.087 14.9349 149.917 15.2992 150.747 15.7242C151.152 15.94 151.563 16.1559 151.981 16.3717C152.386 16.5876 152.798 16.8102 153.216 17.0396C152.669 16.736 152.204 16.4527 151.779 16.2098C151.374 15.967 151.01 15.7242 150.686 15.5015C150.059 15.0563 149.553 14.6921 149.067 14.2873C148.581 13.8826 148.076 13.5183 147.408 13.0933C146.74 12.6684 145.91 12.2636 144.757 11.7577C144.878 11.5149 145.566 11.5149 146.861 11.7982C147.489 11.9398 148.258 12.1827 149.189 12.4862C150.079 12.81 151.152 13.2148 152.305 13.7612C154.653 14.8135 157.506 16.3313 160.703 18.4966C163.921 20.662 167.483 23.5154 171.126 27.1985C167.544 23.4547 163.658 20.0144 159.489 16.9181C157.486 15.2587 157.627 15.0159 158.356 15.1373C159.064 15.2587 160.359 15.7242 160.562 15.4408C162.707 17.0193 164.751 18.699 166.269 19.9537C167.807 21.2286 168.818 22.0786 168.94 21.9369C169.203 21.6738 169.709 21.1274 169.952 20.8644C167.989 19.0228 164.913 16.3717 161.675 13.9635C160.036 12.7696 158.376 11.5958 156.798 10.6042C156.029 10.0983 155.28 9.63282 154.572 9.20784C153.884 8.78287 153.216 8.4186 152.629 8.07457C153.803 8.72215 154.956 9.43045 156.029 10.0983C156.568 10.4356 157.081 10.7593 157.567 11.0696C158.052 11.3934 158.518 11.697 158.943 11.9803C159.793 12.5065 160.501 12.9922 161.007 13.2957C161.513 13.5993 161.837 13.7409 161.877 13.66C162.1 13.3767 162.545 12.7696 162.747 12.4862C165.014 14.0445 167.463 15.967 169.891 18.1728C172.319 20.3584 174.728 22.8273 176.974 25.4177C179.241 28.0282 181.365 30.74 183.247 33.3911C185.15 36.0421 186.85 38.6324 188.307 40.9597L189.258 40.4133C187.942 37.9646 186.283 35.2933 184.36 32.6018C182.438 29.8901 180.252 27.1783 177.905 24.6082C175.557 22.0179 173.068 19.5692 170.579 17.3836C168.11 15.198 165.641 13.2552 163.415 11.5958C165.763 13.1136 166.936 13.8624 167.645 14.1254C168.313 14.4088 168.495 14.1861 168.738 13.9028L169.972 14.9147L171.186 15.9468L171.773 16.4729L172.36 16.9991L173.534 18.0716L174.687 19.1847L175.254 19.7513L175.8 20.318L176.913 21.4512L177.986 22.625L178.532 23.2118L179.038 23.819L180.09 25.0129L181.102 26.2474L181.608 26.8545L182.094 27.4818C183.409 29.1413 184.644 30.8614 185.878 32.6018C188.266 36.0826 190.472 39.705 192.496 43.4286C194.54 47.132 196.381 50.9365 198.122 54.822C196.159 49.5199 193.71 44.3797 190.857 39.4824C192.678 41.7085 194.783 45.0273 196.725 49.1557C196.968 49.6818 197.231 50.208 197.454 50.7342C197.683 51.2738 197.919 51.827 198.162 52.3936C198.607 53.5066 199.093 54.6601 199.498 55.8541C200.368 58.2421 201.157 60.7717 201.825 63.362C203.181 68.563 204.092 74.0472 204.557 79.2886C205.022 84.5502 205.063 89.5487 204.942 93.839Z" fill="white"/>
<g opacity="0.8">
<path d="M178.229 31.9542C177.763 30.6186 177.358 29.4449 177.075 28.3723C176.772 27.2997 176.569 26.3486 176.488 25.5189L175.072 23.5559L173.615 21.6131C175.922 24.163 178.087 26.8343 180.09 29.6067C181.487 31.4483 182.843 33.4315 184.138 35.4755C184.462 35.9814 184.806 36.4873 185.109 37.0337C185.433 37.5464 185.75 38.0726 186.06 38.6122C186.667 39.6848 187.295 40.7573 187.861 41.8704C189.035 44.0762 190.128 46.3427 191.12 48.67C192.091 50.977 192.981 53.3245 193.75 55.6922C194.54 58.0397 195.187 60.4075 195.754 62.7347C196.037 63.9085 196.26 65.062 196.503 66.2155C196.705 67.369 196.907 68.482 197.069 69.6153C197.15 70.1617 197.231 70.7283 197.312 71.2747C197.373 71.8211 197.434 72.3675 197.494 72.9139C197.616 74.0067 197.717 75.059 197.778 76.0911C197.859 77.1232 197.879 78.1351 197.919 79.1267C197.939 79.6124 197.94 80.0981 197.94 80.5837C197.94 81.0492 197.96 81.5349 197.94 81.9801C197.879 79.8147 197.697 77.4268 197.413 74.9781C197.11 72.5294 196.685 70.0403 196.179 67.6118C196.084 67.2071 195.997 66.8091 195.916 66.4178C195.815 66.0131 195.734 65.6084 195.632 65.2239C195.538 64.8326 195.444 64.4414 195.349 64.0501C195.241 63.6724 195.14 63.2946 195.046 62.9168C194.236 59.9218 193.346 57.2302 192.617 55.1256C192.799 55.5303 192.961 55.9351 193.143 56.3601C191.848 53.2436 190.391 50.208 188.752 47.2939C185.797 41.7894 182.256 36.6492 178.229 31.9542Z" fill="white"/>
<path d="M29.6487 148.236L29.8915 148.6C29.3653 147.993 28.8189 147.386 28.2725 146.779C26.8357 144.877 25.4596 142.914 24.1644 140.93C22.8693 138.927 21.6753 136.863 20.542 134.799C18.2957 130.65 16.4137 126.421 14.8554 122.211C11.1318 111.971 9.31048 100.477 9.87711 88.6179C9.9783 86.2501 10.2009 83.8622 10.5045 81.4539C10.12 86.2704 10.12 91.107 10.464 95.8829C10.4775 96.3551 10.4977 96.8273 10.5247 97.2995C10.6259 99.8291 10.8485 102.318 11.1723 104.726C11.4961 107.155 11.921 109.502 12.4067 111.809C12.9127 114.096 13.5198 116.343 14.1674 118.528C14.8352 120.714 15.6042 122.859 16.4137 124.943C17.2231 127.048 18.1338 129.092 19.0849 131.095C20.0563 133.106 21.0884 135.075 22.1812 137.005C23.2942 138.927 24.4478 140.829 25.7024 142.711C26.9571 144.573 28.2523 146.435 29.6487 148.236Z" fill="white"/>
<path d="M8.54148 82.6277C8.98669 77.0423 9.97831 71.295 11.5163 65.5881C13.0341 59.9016 15.1185 54.2554 17.6886 48.8319L18.0124 48.9938C15.1387 54.9435 12.7913 61.6217 11.0104 68.5428C10.7878 69.4939 10.5247 70.445 10.3223 71.3962L9.97831 72.833L9.67475 74.2901L10.0188 72.9139C9.3712 76.1316 8.86527 79.3695 8.54148 82.6277Z" fill="white"/>
<path d="M14.653 58.2421C15.8268 54.9233 17.1624 51.6853 18.66 48.5081C18.8826 48.1034 19.1254 47.7189 19.3683 47.3141C18.4778 49.0748 17.6481 50.8759 16.8386 52.6972C16.0696 54.5388 15.3209 56.3601 14.653 58.2421Z" fill="white"/>
<path d="M36.934 145.929C37.4399 146.597 37.9458 147.265 38.4518 147.912C38.1077 147.528 37.8042 147.103 37.4804 146.698L36.9947 146.071C36.8328 145.868 36.6709 145.666 36.5293 145.464L36.934 145.929Z" fill="white"/>
<path d="M53.7307 10.6649L51.707 11.9803L49.7035 13.3564L51.4237 12.1625C51.9903 11.7577 52.5772 11.3934 53.1438 11.0089L53.7307 10.6649Z" fill="white"/>
<path d="M67.4514 4.18906L66.7431 4.49261L66.0348 4.79617L64.6384 5.42351L63.2421 6.09134C62.7699 6.3072 62.3044 6.5298 61.8457 6.75915C62.4528 6.4556 63.0802 6.15204 63.6873 5.84849L64.6182 5.40328L65.5491 4.9783C66.1967 4.71522 66.824 4.4319 67.4514 4.18906Z" fill="white"/>
<path d="M32.0164 29.8294C33.5949 27.8259 35.2543 25.9034 36.9745 24.0213L37.9661 23.05L38.0065 23.0904C35.9019 25.2356 33.9187 27.5021 32.0164 29.8294Z" fill="white"/>
<path fill-rule="evenodd" clip-rule="evenodd" d="M61.6231 6.3342C58.9249 7.65635 56.294 9.09992 53.7307 10.6649L51.707 11.9803L49.7035 13.3564L51.4237 12.1625C51.9903 11.7577 52.5772 11.3934 53.1438 11.0089C45.5145 15.7646 37.9054 22.0179 31.1057 29.971L30.3974 31.1852C33.3116 27.583 36.4888 24.2035 39.8683 21.0263L38.4113 22.5036C37.9054 23.0095 37.4399 23.5154 36.9745 24.0213L37.9661 23.05C38.6339 22.4024 39.3017 21.775 39.9695 21.1477C39.3219 21.7953 38.6541 22.4226 38.0065 23.0904C39.6862 21.4917 41.3861 19.9537 43.1872 18.4764L43.855 17.93L44.5229 17.3836L45.8787 16.311C46.8096 15.623 47.7203 14.9147 48.6512 14.2469C47.1334 15.2992 45.6359 16.392 44.1788 17.505C45.9799 16.0884 47.862 14.7326 49.7642 13.4171L48.6512 14.2469C50.3713 13.0731 52.132 11.9601 53.8926 10.8875C56.402 9.25507 58.9788 7.7373 61.6231 6.3342Z" fill="white"/>
<path d="M76.983 0.404785L75.364 0.930948L73.7451 1.49758C72.2475 2.03724 70.7568 2.61736 69.2727 3.23796C67.0466 4.12839 64.8408 5.07953 62.6755 6.13186C60.5101 7.18418 58.3852 8.31745 56.3008 9.51143C55.4913 9.95665 54.6818 10.4221 53.8926 10.8876C56.402 9.2551 58.9788 7.73732 61.6231 6.33423C66.5812 3.92602 71.7214 1.92256 76.983 0.404785Z" fill="white"/>
<path d="M39.9695 21.1477C39.322 21.7953 38.6541 22.4226 38.0066 23.0904L37.9661 23.05C38.6339 22.4024 39.3017 21.775 39.9695 21.1477Z" fill="white"/>
<path d="M78.2984 0C77.4484 0.263081 76.5985 0.566635 75.7485 0.849953C75.0807 1.05232 74.4129 1.29517 73.7451 1.49754L75.364 0.930903L76.983 0.40474L77.6508 0.20237L78.2984 0Z" fill="white"/>
<path d="M74.6355 1.25473C73.401 1.69994 72.2071 2.1654 71.0131 2.65108L69.2322 3.39985C68.6251 3.66293 68.0382 3.92601 67.4514 4.18909C68.6858 3.60222 69.9405 3.05582 71.2154 2.52966L72.9154 1.88208C73.482 1.65947 74.0486 1.4571 74.6355 1.25473Z" fill="white"/>
<path d="M75.7485 0.849976C75.364 0.971398 74.9998 1.13329 74.6355 1.25472C74.0486 1.45709 73.482 1.65946 72.9154 1.88206L71.2154 2.52965C70.5679 2.75225 69.9203 2.9951 69.2727 3.23794C70.7567 2.61734 72.2475 2.03721 73.7451 1.49756C74.4129 1.29519 75.0807 1.05235 75.7485 0.849976Z" fill="white"/>
<path d="M76.3557 0.667816L75.4855 0.951133L74.6355 1.25469C74.9998 1.13327 75.364 0.97137 75.7485 0.849948L76.3557 0.667816Z" fill="white"/>
<path d="M71.2154 2.52966C69.9405 3.05583 68.6858 3.60222 67.4514 4.1891C66.824 4.43194 66.1967 4.71526 65.5491 4.97834C67.4109 4.08791 69.3132 3.29867 71.2154 2.52966Z" fill="white"/>
<path d="M71.2154 2.52966C69.3132 3.29867 67.4109 4.08791 65.5491 4.97834C64.4968 5.40332 63.4444 5.86877 62.3921 6.33422C64.4563 5.32237 66.5407 4.37123 68.6454 3.50104C68.8477 3.39985 69.0703 3.31891 69.2727 3.23796C69.9203 2.99511 70.5679 2.75227 71.2154 2.52966Z" fill="white"/>
<path d="M49.7642 13.4171L48.6512 14.2469C47.1334 15.2992 45.6359 16.392 44.1788 17.505C45.9799 16.0884 47.862 14.7325 49.7642 13.4171Z" fill="white"/>
<path d="M56.3008 9.51138C55.1068 10.2197 53.9331 10.9482 52.7795 11.697L53.8926 10.8875C54.6818 10.422 55.4913 9.9566 56.3008 9.51138Z" fill="white"/>
<path d="M69.2727 3.23795C69.0703 3.31889 68.8477 3.39984 68.6454 3.50103C66.5205 4.37122 64.4361 5.30212 62.3719 6.29373C60.328 7.30558 58.284 8.37814 56.3008 9.51142C58.3852 8.31743 60.5101 7.18416 62.6755 6.13184C64.8408 5.07951 67.0466 4.12837 69.2727 3.23795Z" fill="white"/>
<path d="M33.5544 43.3679C31.6724 45.8975 29.9522 48.5486 28.3535 51.2806C30.1344 48.1641 32.0973 45.169 34.2222 42.2953L33.5544 43.3679Z" fill="white"/>
<path d="M31.3283 47.1724C29.6284 49.5604 28.0297 52.0496 26.5726 54.6197C28.3737 51.2806 30.3772 48.0629 32.583 44.9868C32.158 45.7154 31.7331 46.4439 31.3283 47.1724Z" fill="white"/>
<path d="M29.1023 53.7697C28.1106 55.7124 27.2405 57.6552 26.4107 59.5575C25.6013 61.48 24.8727 63.3823 24.2049 65.2238C22.8895 68.9677 21.8372 72.5294 20.9872 75.8685L21.1491 75.1399L21.3313 74.4114L21.6753 72.9746C21.9181 72.0235 22.161 71.0723 22.4443 70.1212C22.9704 68.2391 23.5978 66.3571 24.2656 64.5155L24.0632 65.1024C24.7715 63.1596 25.5405 61.2371 26.3905 59.3551C27.2405 57.4528 28.1309 55.591 29.1023 53.7697Z" fill="white"/>
<path d="M29.1023 53.7697C28.1309 55.591 27.2405 57.4528 26.3905 59.3551C25.5406 61.2371 24.7716 63.1596 24.0633 65.1024L24.2656 64.5155L24.7918 63.1394L25.3382 61.7633L25.6215 61.0752L25.9048 60.4074C26.1072 59.9622 26.3096 59.4967 26.5119 59.0515C27.3214 57.2707 28.1714 55.5101 29.1023 53.7697Z" fill="white"/>
<path d="M30.0939 49.358L29.2439 50.6735C28.9606 51.1187 28.6975 51.5841 28.4142 52.0293C29.3249 50.3699 30.3165 48.7509 31.3283 47.1725C30.9033 47.901 30.4986 48.6295 30.0939 49.358Z" fill="white"/>
<path d="M163.274 21.1477C164.124 21.7953 164.933 22.4833 165.763 23.1511L167.523 24.5475L169.243 26.0046C166.815 23.4142 164.245 20.9858 161.392 18.6383C161.047 18.3347 160.663 18.0514 160.299 17.7681C159.934 17.4646 159.57 17.1812 159.186 16.8979C158.417 16.3313 157.668 15.7444 156.858 15.198C155.26 14.0647 153.56 12.9922 151.759 11.9196C152.467 12.3851 153.175 12.891 153.884 13.3564C151.961 12.1827 150.16 11.1506 148.399 10.1792C146.639 9.24833 144.959 8.37814 143.279 7.60913C139.9 6.03065 136.581 4.71524 132.857 3.58197C135.488 4.45216 138.24 5.48425 141.033 6.7187C143.806 7.93292 146.619 9.32928 149.29 10.8673C151.981 12.4053 154.551 14.085 156.919 15.8456C159.267 17.586 161.412 19.3871 163.274 21.1477Z" fill="white"/>
<path d="M43.9764 29.0199L42.6003 30.3555L41.2647 31.7316C40.7992 32.1566 40.354 32.6221 39.9088 33.0673L39.2208 33.7553L38.5732 34.4434C40.2731 32.5411 42.0539 30.6995 43.9157 28.9592L43.9764 29.0199Z" fill="white"/>
<path d="M44.0372 29.0806L42.6408 30.3758L41.2647 31.7317L42.6003 30.3555L43.9765 29.0199L44.0372 29.0806Z" fill="white"/>
<path d="M45.2919 28.5544C44.5026 29.2425 43.7336 29.971 42.9646 30.6995C41.1028 32.4264 39.3152 34.2343 37.6018 36.123C39.666 33.7148 41.8718 31.4078 44.1788 29.2222C44.5431 28.9794 44.9276 28.777 45.2919 28.5544Z" fill="white"/>
<path d="M45.3323 28.5949C44.5229 29.2627 43.7539 29.9912 42.9646 30.6995C43.7336 29.971 44.5026 29.2425 45.2919 28.5544L45.3323 28.5949Z" fill="white"/>
<path d="M45.8585 28.2306C43.6324 30.1734 41.5075 32.2173 39.4636 34.3827C40.0302 33.7553 40.6171 33.128 41.1838 32.5209C41.7774 31.9003 42.371 31.2932 42.9646 30.6995C43.7538 29.9912 44.5229 29.2627 45.3323 28.5949L45.8585 28.2306Z" fill="white"/>
<path d="M43.9157 28.9591C42.0539 30.6995 40.2731 32.5411 38.5732 34.4434L39.2208 33.7553L39.9088 33.0672C40.354 32.622 40.7992 32.1566 41.2647 31.7316C38.8565 34.2612 36.4078 37.2158 34.121 40.2919C31.8342 43.3679 29.7701 46.6058 27.9892 49.6413C29.7296 46.3022 31.7128 43.0846 33.9389 40.0288C37.7232 34.7671 42.0944 29.9507 46.8906 25.5998C46.3847 26.1664 45.8585 26.6926 45.3728 27.2592C44.8871 27.8259 44.3812 28.3925 43.9157 28.9591Z" fill="white"/>
<path d="M49.2178 23.4142C47.356 24.932 45.4942 26.5914 43.6931 28.2913C41.9123 30.0317 40.1921 31.8126 38.5732 33.6137C36.934 35.3945 35.4567 37.1956 34.0806 38.8753C33.7433 39.307 33.4127 39.7252 33.089 40.13C32.7652 40.555 32.4616 40.9597 32.158 41.3442C31.5307 42.1334 30.9843 42.9025 30.4379 43.6107C30.8224 43.0239 31.1867 42.437 31.5712 41.8704C33.4532 39.0979 35.3555 36.6492 37.2982 34.4232C39.241 32.1768 41.204 30.1329 43.2884 28.1902C45.3526 26.2272 47.4977 24.3654 49.8249 22.5238C52.1522 20.662 54.6414 18.8002 57.4138 16.9181C57.7106 16.7158 58.0074 16.5134 58.3042 16.311C58.1423 16.419 57.967 16.5202 57.7781 16.6146C57.6027 16.7225 57.4206 16.8372 57.2317 16.9586C56.8674 17.188 56.4964 17.4173 56.1187 17.6467C55.7139 17.8895 55.3294 18.1526 54.9449 18.4157C54.5402 18.6788 54.1354 18.9418 53.7307 19.2252C52.9212 19.7918 52.0713 20.3584 51.2618 20.9858C50.8368 21.2893 50.4118 21.5929 50.0071 21.9167C49.5888 22.2405 49.1774 22.5643 48.7726 22.8881C45.474 25.4784 42.3777 28.3318 40.0505 30.5984C41.8516 28.7366 43.7336 26.9962 45.6359 25.357C47.5382 23.6975 49.4809 22.1393 51.4641 20.7025C53.4474 19.2454 55.4711 17.8895 57.5352 16.6146C59.5994 15.3464 61.7041 14.1659 63.8492 13.0731C58.6483 16.0277 53.7509 19.5085 49.2178 23.4142Z" fill="white"/>
<path d="M37.5209 33.5529C36.7316 34.3827 35.9626 35.2326 35.2138 36.0826C34.8293 36.5075 34.4651 36.9325 34.1008 37.3777L33.5342 38.0253L33.008 38.6932C31.5509 40.4538 30.1748 42.2751 28.8594 44.1571C29.3856 43.3274 29.9522 42.5382 30.5189 41.7287C30.7819 41.324 31.0855 40.9192 31.3688 40.5347C31.6724 40.13 31.9354 39.7252 32.239 39.3407C33.9187 37.3373 35.6793 35.4148 37.5209 33.5529Z" fill="white"/>
<path d="M20.2587 60.3468L19.8944 61.2574L19.5504 62.1883L19.2873 62.7954C19.6111 61.9657 19.9147 61.1563 20.2587 60.3468Z" fill="white"/>
<path fill-rule="evenodd" clip-rule="evenodd" d="M25.4798 49.7628L24.6704 51.1794L23.9014 52.6162C22.5657 55.1391 21.3515 57.7159 20.2587 60.3467L19.8944 61.2574L19.5504 62.1883C20.3801 60.0432 21.2908 57.9183 22.3026 55.8541C23.2942 53.7899 24.3466 51.746 25.4798 49.7628Z" fill="white"/>
<path d="M32.239 39.3407C31.9355 39.7252 31.6724 40.13 31.3688 40.5347C31.0855 40.9192 30.7819 41.324 30.5189 41.7287C29.9522 42.5382 29.3856 43.3274 28.8594 44.1571C27.0583 46.8891 25.3989 49.7223 23.9014 52.6162C22.5657 55.1391 21.3515 57.7159 20.2587 60.3467C19.9147 61.1562 19.6111 61.9657 19.2873 62.7954L19.5504 62.1883C17.9314 66.0333 16.5958 70.02 15.503 74.0674C16.5351 69.332 17.9314 64.6572 19.6921 60.1444C20.4408 58.4647 21.311 56.7243 22.2015 54.9232C22.4443 54.4915 22.6871 54.0463 22.93 53.5876C23.0514 53.3582 23.1728 53.1289 23.2943 52.8995C23.4157 52.6837 23.5371 52.461 23.6585 52.2317C23.9149 51.7865 24.1712 51.3345 24.4275 50.8758C24.6839 50.4306 24.9469 49.9786 25.2168 49.5199C26.2893 47.7188 27.4226 45.938 28.6166 44.2381C29.2035 43.3679 29.8106 42.5382 30.4177 41.7287C30.701 41.3037 31.0248 40.9192 31.3283 40.5145C31.6319 40.13 31.9355 39.7252 32.239 39.3407Z" fill="white"/>
<path d="M18.0933 63.787C16.8994 67.2273 15.928 70.5867 15.159 73.7436C14.39 76.9006 13.8233 79.8349 13.3579 82.486C13.9245 77.1637 14.9566 71.902 16.4137 66.7416C16.2922 67.4094 16.2113 68.0773 16.1101 68.7451L16.5756 67.4904C16.7375 67.0654 16.8994 66.6607 17.0613 66.2559C17.2434 65.831 17.4053 65.4262 17.5672 65.0012L18.0933 63.787Z" fill="white"/>
<path d="M84.4302 172.945C86.2111 173.451 88.0122 173.876 89.8133 174.241C89.2061 174.2 88.599 174.099 87.9717 174.038C87.3848 173.876 86.7979 173.694 86.1908 173.512L85.3206 173.249L84.4302 172.945Z" fill="white"/>
<path d="M188.934 74.5126C188.691 68.3808 187.861 62.8359 186.789 57.8374C186.263 55.3482 185.635 52.9805 184.988 50.7544C184.684 49.6211 184.34 48.5486 183.996 47.4963C183.652 46.4439 183.328 45.4118 182.964 44.4202C184.502 47.2129 185.899 50.1068 187.133 53.0614C188.347 55.9958 189.379 59.0313 190.27 62.1074C191.666 67.0857 192.536 72.1854 192.901 77.0018C193.083 79.41 193.164 81.7372 193.143 83.9431C193.103 86.1489 192.981 88.2131 192.799 90.1154C192.415 93.9402 191.787 97.0567 191.201 99.1613C191.039 99.6875 190.89 100.153 190.755 100.558C190.614 100.962 190.472 101.306 190.351 101.57C190.108 102.096 189.885 102.339 189.723 102.278C189.541 102.197 189.42 101.711 189.359 100.78C190.047 96.2067 190.351 91.5724 190.229 87.1405C190.128 82.6884 189.642 78.4184 188.934 74.5126Z" fill="white"/>
<path d="M169.871 142.711L170.296 142.266L170.721 141.821L171.55 140.91C170.903 141.78 170.417 142.489 169.952 143.116C169.507 143.743 169.102 144.351 168.596 144.978C168.353 145.322 168.09 145.666 167.807 146.03C167.503 146.394 167.159 146.799 166.775 147.244C166.39 147.69 165.945 148.175 165.439 148.722C165.196 148.985 164.933 149.268 164.629 149.572C164.346 149.855 164.036 150.165 163.699 150.503C163.86 150.199 164.144 149.794 164.569 149.288C164.973 148.762 165.479 148.155 166.046 147.487C167.179 146.091 168.576 144.452 169.871 142.711Z" fill="white"/>
<path d="M181.871 122.798C184.441 118.589 186.931 112.457 188.408 105.759C188.502 105.34 188.597 104.929 188.691 104.524C188.772 104.106 188.853 103.688 188.934 103.269C189.096 102.44 189.217 101.61 189.359 100.78C189.42 101.711 189.541 102.197 189.723 102.278C189.885 102.339 190.108 102.096 190.351 101.57C190.472 101.306 190.614 100.962 190.755 100.558C190.89 100.153 191.039 99.6875 191.201 99.1613C191.787 97.0567 192.415 93.9402 192.799 90.1154C192.981 88.2131 193.103 86.1489 193.143 83.9431C193.164 81.7372 193.083 79.41 192.901 77.0018C192.536 72.1854 191.666 67.0857 190.27 62.1074C192.455 69.6962 193.609 77.6089 193.669 85.5013C193.73 93.414 192.779 101.327 190.796 108.996C189.46 114.096 187.7 119.075 185.534 123.891C183.936 127.351 182.175 130.751 180.171 134.009L179.402 135.224L178.633 136.418C178.107 137.227 177.561 138.016 177.035 138.806C175.922 140.364 174.788 141.902 173.594 143.379C172.421 144.897 171.166 146.334 169.891 147.771C168.616 149.187 167.301 150.584 165.925 151.919L164.913 152.911L163.86 153.902L163.334 154.388L162.808 154.874L161.736 155.825C161.371 156.149 161.007 156.452 160.643 156.756C160.278 157.059 159.914 157.383 159.55 157.687C158.801 158.274 158.073 158.901 157.304 159.468L158.174 159.043L159.044 158.577C161.938 156.29 164.731 153.842 167.321 151.211C169.851 148.661 172.239 145.969 174.444 143.157C174.809 142.732 175.132 142.286 175.476 141.841L175.982 141.173L176.468 140.505C180.374 135.143 183.632 129.476 186.243 123.81C188.833 118.144 190.776 112.497 192.233 107.135C190.452 115.594 187.275 124.093 182.822 131.905C179.888 137.085 176.407 141.983 172.522 146.415C166.694 153.073 159.995 158.739 153.013 163.151C146.032 167.542 138.807 170.699 131.987 172.703C129.559 173.451 126.503 174.301 123.103 175.07C119.703 175.839 115.939 176.446 112.175 176.851C115.737 176.467 119.278 175.88 122.779 175.07L123.913 174.402C121.538 174.861 119.15 175.225 116.749 175.495C114.347 175.752 111.953 175.913 109.565 175.981C110.799 175.9 112.054 175.799 113.288 175.657C115.575 175.394 117.841 175.05 120.088 174.625C122.341 174.193 124.58 173.674 126.806 173.067C128.83 172.52 130.813 171.873 132.797 171.205C134.76 170.517 136.702 169.728 138.645 168.918C141.013 167.886 143.34 166.733 145.627 165.458C152.73 161.451 159.388 156.29 165.621 149.794C163.091 152.263 160.38 154.57 157.567 156.736C156.858 157.241 156.292 157.586 155.907 157.808C155.503 158.051 155.26 158.152 155.159 158.152C154.713 158.132 156.939 156.25 159.833 153.457C161.29 152.061 162.93 150.422 164.508 148.722C166.107 147.022 167.645 145.241 169.021 143.602L169.871 142.711C168.576 144.452 167.179 146.091 166.046 147.487C165.479 148.155 164.973 148.762 164.569 149.288C164.144 149.794 163.86 150.199 163.699 150.503C164.036 150.165 164.346 149.855 164.629 149.572C164.933 149.268 165.196 148.985 165.439 148.722C165.945 148.175 166.39 147.69 166.775 147.244C167.159 146.799 167.503 146.394 167.807 146.03C168.09 145.666 168.353 145.322 168.596 144.978C169.102 144.351 169.507 143.743 169.952 143.116C170.417 142.489 170.903 141.78 171.55 140.91C172.178 140.364 172.805 139.797 173.433 139.251C175.274 137.004 176.994 134.657 178.613 132.249C178.188 133.261 178.35 133.22 178.816 132.613C179.058 132.31 179.362 131.844 179.726 131.298C179.888 131.035 180.09 130.751 180.273 130.427C180.461 130.117 180.657 129.8 180.859 129.476C182.438 126.866 183.976 123.769 183.976 124.458C186.243 119.965 188.104 115.25 189.602 110.413C190.128 107.715 190.54 105.01 190.836 102.298C190.168 105.05 189.359 107.803 188.469 110.332C187.578 112.862 186.607 115.189 185.696 117.132C185.453 117.617 185.224 118.076 185.008 118.508C184.785 118.933 184.563 119.338 184.36 119.722C183.956 120.471 183.551 121.098 183.207 121.604C183.045 121.86 182.89 122.076 182.742 122.252C182.593 122.427 182.465 122.569 182.357 122.677C182.134 122.879 181.973 122.94 181.871 122.798Z" fill="white"/>
<path fill-rule="evenodd" clip-rule="evenodd" d="M100.842 175.799C103.736 176.001 106.65 176.062 109.565 175.981C110.799 175.9 112.054 175.799 113.288 175.657C115.575 175.394 117.841 175.05 120.088 174.625C122.341 174.193 124.58 173.674 126.806 173.067L127.373 172.804C126.422 173.087 125.471 173.31 124.499 173.552C124.014 173.654 123.528 173.755 123.042 173.876C122.57 173.984 122.085 174.085 121.585 174.18L120.128 174.463L118.671 174.706C118.186 174.787 117.7 174.868 117.214 174.929C116.728 175.01 116.223 175.091 115.737 175.131C117.895 174.794 120.041 174.382 122.172 173.897C124.304 173.397 126.408 172.824 128.486 172.176C126.078 172.783 123.346 173.451 120.452 174.018C117.538 174.585 114.462 175.07 111.366 175.354C107.865 175.718 104.343 175.88 100.842 175.799Z" fill="white"/>
<path d="M170.984 141.234L171.55 140.91L170.721 141.821L170.296 142.266L169.871 142.711C170.255 142.246 170.599 141.74 170.984 141.234Z" fill="white"/>
<path opacity="0.8" d="M163.597 143.602C166.39 140.991 167.989 139.433 169.001 138.704C169.992 137.956 170.356 138.016 170.478 138.441C170.599 138.866 170.478 139.656 170.417 140.263C170.377 140.89 170.417 141.396 170.984 141.234C170.599 141.74 170.255 142.246 169.871 142.711L169.021 143.602C167.645 145.241 166.107 147.022 164.508 148.722C162.93 150.422 161.29 152.061 159.833 153.457C156.939 156.25 154.713 158.132 155.159 158.152C155.26 158.152 155.503 158.051 155.907 157.808C156.292 157.586 156.858 157.241 157.567 156.736C160.38 154.57 163.091 152.263 165.621 149.794C159.388 156.29 152.73 161.451 145.627 165.458C143.34 166.733 141.013 167.886 138.645 168.918C136.702 169.728 134.76 170.517 132.797 171.205C130.813 171.873 128.83 172.52 126.806 173.067L127.373 172.804C130.996 171.792 134.557 170.517 138.018 169.06C137.269 169.303 136.52 169.606 135.691 169.89C135.299 170.038 134.895 170.186 134.476 170.335C134.045 170.47 133.613 170.611 133.181 170.76C132.331 171.063 131.421 171.347 130.51 171.65C130.044 171.792 129.579 171.934 129.114 172.075C128.648 172.217 128.183 172.359 127.697 172.5C125.774 173.047 123.791 173.532 121.788 173.998C119.784 174.463 117.74 174.827 115.737 175.131C117.895 174.794 120.041 174.382 122.172 173.897C124.304 173.397 126.408 172.824 128.486 172.176C126.078 172.783 123.346 173.451 120.452 174.018C117.538 174.585 114.462 175.07 111.366 175.354C111.993 175.232 112.6 175.07 113.187 174.929C110.698 174.989 108.229 174.929 105.76 174.767C110.475 174.746 115.19 174.342 119.865 173.552C120.654 173.31 121.464 173.067 122.233 172.824C123.022 172.541 123.811 172.298 124.58 172.014C122.111 172.318 119.339 172.561 115.98 172.763C114.3 172.844 112.479 172.925 110.475 172.945C108.472 172.986 106.286 172.986 103.878 172.885C107.035 172.966 110.01 172.925 112.964 172.723C115.939 172.52 118.874 172.197 121.95 171.65C125.026 171.104 128.223 170.335 131.684 169.242C135.104 168.109 138.807 166.672 142.773 164.628L143.219 164.183L143.664 163.717C144.231 163.454 144.777 163.211 145.344 162.928L146.983 162.098C144.959 162.928 141.924 164.345 138.848 165.518C135.792 166.692 132.736 167.603 130.935 167.886C132.655 167.38 134.375 166.814 136.075 166.186C137.795 165.579 139.475 164.871 141.134 164.163C140.952 164.122 140.507 164.243 139.9 164.426C139.596 164.507 139.252 164.628 138.908 164.749C138.544 164.871 138.159 165.012 137.755 165.134C136.176 165.68 134.456 166.206 133.545 166.368C137.755 164.952 140.224 164.223 142.854 163.292C143.502 163.029 144.17 162.786 144.858 162.503C145.546 162.179 146.295 161.876 147.064 161.471C147.455 161.269 147.86 161.053 148.278 160.823C148.703 160.601 149.128 160.338 149.593 160.054C149.823 159.92 150.059 159.778 150.302 159.629C150.524 159.488 150.767 159.326 151.01 159.164C151.266 158.989 151.523 158.813 151.779 158.638C152.035 158.476 152.298 158.294 152.568 158.091C152.703 157.997 152.831 157.903 152.953 157.808C153.155 157.66 153.357 157.518 153.56 157.383C154.045 157.039 154.491 156.675 154.916 156.351C155.145 156.176 155.361 156.007 155.563 155.845C155.779 155.683 155.981 155.515 156.17 155.339C156.575 155.015 156.96 154.698 157.324 154.388C157.688 154.078 158.039 153.774 158.376 153.477C159.712 152.304 160.784 151.231 161.655 150.32C162.08 149.855 162.444 149.43 162.788 149.046C163.112 148.661 163.395 148.317 163.618 147.993C164.083 147.366 164.387 146.9 164.528 146.577C164.791 145.909 164.468 145.828 163.699 146.192C163.314 146.374 162.808 146.678 162.201 147.083C161.904 147.271 161.58 147.487 161.23 147.73C160.879 147.959 160.508 148.216 160.117 148.499C160.582 148.115 161.007 147.71 161.472 147.325L162.14 146.738L162.808 146.131C163.354 145.524 163.759 145.059 164.043 144.695C164.346 144.31 164.528 144.067 164.629 143.885C164.812 143.541 164.69 143.521 164.447 143.602C164.002 143.784 163.112 144.391 163.597 143.602Z" fill="white"/>
<path opacity="0.8" fill-rule="evenodd" clip-rule="evenodd" d="M100.802 177.822C101.652 177.802 102.502 177.721 103.352 177.661C106.934 177.742 110.556 177.58 114.138 177.215C110.961 177.519 107.784 177.64 104.606 177.6C105.254 177.559 105.881 177.519 106.509 177.438C108.411 177.458 110.313 177.357 112.216 177.256C113.167 177.175 114.118 177.134 115.069 177.013C115.555 176.973 116.02 176.932 116.506 176.871L117.922 176.689C114.968 177.013 111.993 177.175 109.038 177.195C109.969 177.155 110.92 177.074 111.872 177.013C112.337 176.973 112.823 176.932 113.288 176.871C113.754 176.831 114.239 176.79 114.705 176.73C114.077 176.79 113.45 176.831 112.802 176.871C112.175 176.932 111.548 176.952 110.92 176.993C111.325 176.952 111.75 176.912 112.175 176.851C115.939 176.446 119.703 175.839 123.103 175.07C126.503 174.301 129.559 173.451 131.987 172.703C138.807 170.699 146.032 167.542 153.013 163.151C159.995 158.739 166.694 153.073 172.522 146.415C176.407 141.983 179.888 137.085 182.823 131.905C187.275 124.093 190.452 115.594 192.233 107.135C192.961 104.436 193.575 101.704 194.074 98.9387C193.73 103.452 192.981 108.47 191.565 113.752C190.148 119.034 188.104 124.579 185.332 130.164L185.959 128.93C186.182 128.505 186.364 128.1 186.566 127.675C186.991 126.846 187.376 125.996 187.76 125.146C187.942 124.721 188.125 124.296 188.307 123.871L188.853 122.596L189.379 121.301C189.541 120.855 189.723 120.43 189.865 120.005C190.108 119.378 190.351 118.771 190.553 118.164C190.769 117.57 190.978 116.983 191.18 116.403C191.565 115.27 191.929 114.177 192.233 113.125C192.556 112.093 192.82 111.101 193.062 110.17C193.204 109.705 193.305 109.239 193.427 108.814C193.528 108.369 193.649 107.944 193.73 107.519C194.135 105.839 194.439 104.382 194.681 103.087C194.789 102.453 194.897 101.86 195.005 101.306C195.086 100.753 195.167 100.241 195.248 99.7684C195.531 97.9066 195.693 96.7126 195.794 96.0246C195.896 95.3163 195.936 95.1139 195.956 95.2151C195.997 95.3972 195.956 96.3281 195.896 97.3197C195.815 98.3316 195.734 99.3839 195.693 99.8291L195.531 101.286C195.471 101.792 195.39 102.278 195.329 102.763C195.208 103.755 195.025 104.726 194.864 105.698C195.612 102.258 196.159 98.7768 196.523 95.2556C196.503 97.3602 196.402 99.4648 196.26 101.569C196.078 103.674 195.855 105.799 195.531 107.904C193.204 119.014 188.853 129.76 182.742 139.433L183.571 137.976L184.361 136.499C183.106 138.583 181.79 140.566 180.435 142.489C179.099 144.431 177.703 146.273 176.266 148.074C175.915 148.519 175.557 148.965 175.193 149.41C174.815 149.841 174.444 150.273 174.08 150.705L173.534 151.353L172.967 152C172.583 152.425 172.198 152.85 171.814 153.275C170.276 154.955 168.697 156.594 167.038 158.193C163.719 161.37 160.117 164.365 156.13 167.178C154.126 168.574 152.042 169.93 149.836 171.225C147.61 172.52 145.283 173.755 142.834 174.908C143.623 174.463 144.392 173.977 145.161 173.512L143.704 174.362C143.219 174.645 142.713 174.908 142.227 175.192L142.834 174.908C140.73 176.021 138.584 177.033 136.399 177.984C135.852 178.227 135.306 178.47 134.739 178.693L133.08 179.361C131.967 179.785 130.854 180.21 129.721 180.595C130.058 180.501 130.395 180.406 130.732 180.312C131.07 180.19 131.407 180.076 131.744 179.968C132.412 179.765 133.1 179.543 133.748 179.3C145.87 175.09 156.575 168.513 165.581 160.237C166.309 159.528 167.078 158.82 167.807 158.071C168.184 157.693 168.562 157.316 168.94 156.938C169.304 156.547 169.675 156.155 170.053 155.764C170.242 155.562 170.431 155.359 170.62 155.157C170.808 154.955 170.997 154.752 171.186 154.55C171.55 154.145 171.922 153.734 172.299 153.315C173.028 152.486 173.797 151.636 174.505 150.766C177.439 147.265 180.232 143.44 182.742 139.433C181.224 142.226 179.402 145.18 177.217 148.216C175.031 151.251 172.502 154.348 169.628 157.424C168.171 158.941 166.633 160.479 164.994 161.977C164.184 162.746 163.334 163.474 162.484 164.223C162.059 164.608 161.614 164.952 161.169 165.336C160.953 165.512 160.73 165.694 160.501 165.883C160.272 166.058 160.049 166.24 159.833 166.429C156.191 169.323 152.184 172.055 147.833 174.544C143.016 177.317 137.795 179.725 132.23 181.688C128.911 182.781 125.552 183.691 122.152 184.42L123.528 184.197L122.213 184.46L120.897 184.703C120.007 184.885 119.137 185.027 118.246 185.189C111.123 186.403 103.918 186.97 97.1795 186.666C96.9637 186.531 96.7411 186.396 96.5117 186.261C99.9925 186.383 103.473 186.302 106.954 186.059C103.008 186.322 99.0616 186.322 95.1154 186.099C94.8927 186.079 94.6701 186.059 94.4273 186.039C90.9668 185.735 87.5062 185.249 84.2683 184.582C81.0102 183.934 77.9746 183.125 75.3236 182.275H76.0521C71.6 180.979 67.2692 179.34 63.0599 177.377C63.7075 177.661 64.3551 177.903 64.9825 178.187C65.63 178.45 66.2776 178.693 66.9252 178.936C69.3132 179.846 71.7214 180.656 74.1701 181.344C71.2762 180.494 68.443 179.502 65.6503 178.389C63.6671 177.458 61.7041 176.467 59.7815 175.414C59.2959 175.151 58.8304 174.868 58.3447 174.605C57.8793 174.321 57.3936 174.058 56.9281 173.775L55.5318 172.905L54.1354 172.035L53.5081 171.59L52.8605 171.144L51.5856 170.254L50.3511 169.323L49.7238 168.858L49.1167 168.372C49.5012 168.635 49.8857 168.878 50.2702 169.121C48.975 168.19 47.7001 167.218 46.4454 166.206C42.9039 163.292 39.585 160.135 36.5495 156.756C38.0875 158.435 39.6862 160.054 41.3456 161.613C40.9409 161.208 40.5564 160.803 40.1719 160.378C39.7672 159.953 39.3827 159.548 38.9982 159.124C39.9695 160.095 40.9409 161.046 41.9325 161.977C40.435 160.581 39.0184 159.103 37.622 157.606C34.9305 154.854 32.4009 151.919 30.0736 148.843L29.8915 148.6L30.1141 148.823C29.9522 148.641 29.8106 148.438 29.6487 148.236C28.1107 146.01 26.6941 143.723 25.3787 141.376C23.4764 138.239 21.5741 134.272 19.8944 130.549C18.7814 128.06 17.7695 125.672 16.8184 123.709C17.0005 124.377 17.2029 125.024 17.4053 125.672L17.7291 126.643L18.0529 127.594C17.1827 125.388 16.3732 123.061 15.6851 120.693C14.9768 118.346 14.3697 115.958 13.8436 113.651C13.3376 111.324 12.8924 109.077 12.5079 106.993C12.3258 105.961 12.1234 104.949 11.9615 103.998C11.8806 103.526 11.7996 103.067 11.7187 102.622C11.6377 102.163 11.5568 101.725 11.4758 101.306L11.4151 100.537L11.3747 99.7886L11.2937 98.2506L11.2532 96.7126L11.233 95.9638L11.2128 95.1948L11.0913 93.6568L10.9902 92.139C10.9497 91.6264 10.9227 91.1137 10.9092 90.601L10.8485 89.063C11.0306 87.9297 11.233 86.7965 11.4556 85.6835L10.808 86.3108C10.8485 85.6227 10.889 84.9549 10.9699 84.2669C11.4758 78.6005 12.5889 73.4805 13.8436 69.1498C15.1185 64.8191 16.5756 61.2979 17.8505 58.7075C18.2148 58.3635 18.5993 58.0397 18.9838 57.7159C17.9719 60.6908 17.122 63.7061 16.4137 66.7416C14.9566 71.9021 13.9245 77.1637 13.3579 82.486C13.8233 79.8349 14.39 76.9006 15.159 73.7436C15.928 70.5867 16.8994 67.2273 18.0933 63.787C18.3362 63.1597 18.6195 62.5526 18.8826 61.9455L19.2671 61.0348L19.6921 60.1444C17.9314 64.6572 16.5351 69.332 15.503 74.0674C16.5958 70.02 17.9314 66.0333 19.5504 62.1883C20.3801 60.0432 21.2908 57.9183 22.3026 55.8541C23.1728 54.0328 24.0835 52.2317 25.0751 50.4913L24.6704 51.1794L23.9014 52.6162C25.3989 49.7223 27.0583 46.8891 28.8594 44.1571C28.4547 44.8047 28.0499 45.4523 27.6654 46.0999L27.0988 47.0915C26.8964 47.4153 26.7143 47.7593 26.5322 48.0831C25.9655 49.095 25.4596 50.1068 24.9537 51.1389C24.468 52.171 23.9621 53.1828 23.5371 54.2352C23.0716 55.2672 22.6669 56.3196 22.2622 57.3719C21.8777 58.4242 21.4932 59.4563 21.1491 60.5086C20.8051 61.5609 20.5015 62.593 20.198 63.6251C20.0563 64.1513 19.9147 64.6572 19.773 65.1834C19.7056 65.4397 19.6448 65.696 19.5909 65.9524C19.5234 66.2087 19.4627 66.465 19.4087 66.7214C18.9028 68.7451 18.5386 70.7485 18.2148 72.6508C17.3041 76.0911 16.5553 79.5921 16.0494 83.2752C15.5435 86.9786 15.2602 90.8844 15.3006 95.0937L15.3613 93.7985L15.4625 92.5033C15.4221 93.6366 15.4423 94.7496 15.4625 95.802C15.4828 96.8543 15.503 97.8864 15.5435 98.8982C15.6244 100.902 15.7863 102.804 15.9482 104.666C16.0494 105.597 16.1304 106.528 16.272 107.438L16.4541 108.814C16.5216 109.273 16.5958 109.732 16.6768 110.19C16.7037 110.42 16.7375 110.649 16.7779 110.879C16.8184 111.108 16.8656 111.337 16.9196 111.567C17.0005 112.025 17.0815 112.484 17.1624 112.943C17.2704 113.401 17.3716 113.867 17.466 114.339C17.52 114.582 17.5739 114.818 17.6279 115.047C17.6819 115.29 17.7426 115.526 17.81 115.756C16.6363 110.332 15.7661 104.018 15.6649 97.684C15.6042 94.527 15.7256 91.37 16.0089 88.3345C16.2922 85.2989 16.7577 82.3848 17.3243 79.7135L17.1422 80.9885L17.0005 82.2634C16.5756 86.412 16.3327 91.0665 16.5149 95.802C16.697 100.537 17.2839 105.334 18.3362 109.685C17.7088 105.03 17.4862 100.335 17.5874 95.6805C17.6279 104.565 19.004 113.307 21.7562 121.726C24.4882 130.144 28.5963 138.239 34.1413 145.706C37.6018 150.32 41.5278 154.611 46.0002 158.557C50.4523 162.503 55.4711 166.085 61.1172 169.202L62.2707 169.788C70.7095 174.564 80.0185 177.984 90.3394 179.664C87.1217 179.077 82.9732 178.167 78.946 176.892L78.177 176.649C77.9341 176.568 77.6845 176.487 77.4282 176.406C76.9425 176.244 76.4366 176.082 75.9509 175.9C74.9593 175.536 74.0082 175.212 73.0773 174.827C72.1464 174.463 71.2762 174.079 70.4262 173.714C69.5965 173.35 68.8073 172.986 68.0787 172.642C68.4025 172.777 68.7331 172.912 69.0703 173.047C72.2071 174.321 75.1617 175.354 78.0353 176.224C80.8887 177.114 83.6814 177.822 86.4742 178.409C89.2871 178.996 92.1 179.441 95.0749 179.745C98.0497 180.028 101.166 180.17 104.546 180.069C105.234 180.049 105.922 180.049 106.63 179.988C105.74 179.988 104.789 179.927 103.777 179.907C103.278 179.893 102.765 179.873 102.239 179.846C101.713 179.833 101.173 179.806 100.62 179.765C99.527 179.705 98.3937 179.624 97.2402 179.543C96.6601 179.475 96.0732 179.414 95.4796 179.361C94.8725 179.32 94.2856 179.239 93.6785 179.158C91.2703 178.875 88.7812 178.49 86.3325 177.984C83.8838 177.499 81.4351 176.892 79.1281 176.204L80.3828 176.487L81.6375 176.75C88.8823 178.511 96.0462 179.32 103.089 179.239C106.428 179.199 109.747 178.956 113.005 178.511C109.484 178.834 105.618 178.996 101.672 178.936C97.7462 178.875 93.719 178.551 89.9144 177.944C88.8621 177.742 87.83 177.519 86.7777 177.296L86.8182 177.094C89.9549 177.721 93.1119 178.207 96.3093 178.511C93.7595 178.187 91.2366 177.762 88.7407 177.236C89.5772 177.384 90.4136 177.519 91.2501 177.64C92.1 177.762 92.9297 177.883 93.7797 177.984C90.8251 177.559 87.911 176.973 85.0171 176.264L85.7051 176.062C86.2313 176.102 86.7575 176.183 87.2836 176.224L88.8824 176.365C89.7053 176.46 90.535 176.548 91.3715 176.629C94.488 177.195 97.6247 177.6 100.802 177.822ZM25.4798 49.7628C25.3449 50.0056 25.21 50.2485 25.0751 50.4913L25.4798 49.7628ZM176.347 144.695L175.537 145.727L175.132 146.253L174.707 146.759C174.161 147.447 173.635 148.135 173.068 148.823L172.198 149.814C171.915 150.138 171.611 150.462 171.328 150.806L170.498 151.737L169.648 152.668C169.594 152.735 169.534 152.796 169.466 152.85C168.899 153.457 168.313 154.064 167.705 154.651C167.119 155.299 166.471 155.906 165.844 156.533C165.216 157.14 164.548 157.707 163.901 158.314C163.253 158.921 162.586 159.488 161.938 160.095C161.25 160.662 160.602 161.248 159.914 161.795L158.356 163.029C157.648 163.576 156.96 164.122 156.251 164.648L155.179 165.437C154.828 165.707 154.47 165.964 154.106 166.206C153.378 166.712 152.649 167.239 151.921 167.704C151.354 168.089 150.808 168.473 150.241 168.817C149.492 169.303 148.743 169.768 147.974 170.213C147.408 170.578 146.861 170.942 146.274 171.286C148.541 170.051 150.666 168.777 152.669 167.441C154.653 166.126 156.535 164.749 158.336 163.353C161.918 160.54 165.135 157.606 168.09 154.489L168.738 153.821C168.899 153.646 169.061 153.471 169.223 153.295C169.932 152.506 170.66 151.737 171.328 150.928L171.834 150.361C172.421 149.713 172.967 149.025 173.534 148.357C173.837 147.973 174.121 147.568 174.424 147.184C175.092 146.374 175.699 145.524 176.347 144.695ZM194.864 105.698C194.6 106.831 194.358 107.964 194.054 109.118C193.953 109.502 193.872 109.887 193.771 110.292C193.663 110.683 193.555 111.074 193.447 111.465C193.224 112.336 192.961 113.165 192.698 114.015C192.476 114.865 192.192 115.695 191.929 116.545C191.585 117.577 191.241 118.629 190.857 119.661C190.674 120.167 190.513 120.673 190.33 121.159C190.067 121.827 189.825 122.515 189.561 123.183C189.292 123.844 189.022 124.511 188.752 125.186L188.732 125.227V125.206C188.597 125.544 188.455 125.874 188.307 126.198C188.32 126.171 188.334 126.144 188.347 126.117C188.57 125.591 188.813 125.065 189.035 124.498C189.278 123.931 189.521 123.365 189.744 122.778C190.148 121.766 190.553 120.734 190.938 119.702L191.282 118.71C191.443 118.225 191.612 117.739 191.787 117.253C191.868 117.01 191.949 116.767 192.03 116.525L192.273 115.776C192.455 115.209 192.658 114.643 192.82 114.056L193.326 112.234C193.953 109.988 194.459 107.762 194.864 105.698ZM188.307 126.198C188.104 126.684 187.902 127.169 187.7 127.615C187.875 127.223 188.044 126.832 188.206 126.441C188.246 126.36 188.28 126.279 188.307 126.198ZM11.4556 85.6835L11.577 85.7037C11.6782 84.793 11.8199 83.9026 11.9413 82.9919C11.7794 83.9026 11.5973 84.793 11.4556 85.6835Z" fill="white"/>
<path d="M176.347 144.695C174.282 147.447 172.036 150.118 169.668 152.668L170.498 151.737L171.328 150.806C171.631 150.462 171.915 150.159 172.218 149.815L173.068 148.823C173.635 148.135 174.181 147.447 174.728 146.759L175.132 146.253L175.537 145.727L176.347 144.695Z" fill="white"/>
<path d="M174.444 147.184C174.141 147.568 173.837 147.973 173.534 148.357C172.967 149.025 172.421 149.713 171.834 150.361L171.348 150.928C171.604 150.631 171.868 150.327 172.137 150.017C172.394 149.707 172.65 149.396 172.906 149.086C173.163 148.776 173.419 148.465 173.675 148.155C173.932 147.831 174.188 147.508 174.444 147.184Z" fill="white"/>
<path d="M169.486 152.85C167.705 154.752 165.864 156.574 163.941 158.314C162.039 160.054 160.096 161.694 158.133 163.252C154.167 166.328 150.16 169.019 146.295 171.286C146.861 170.942 147.428 170.578 147.995 170.213C148.764 169.768 149.512 169.303 150.261 168.817C150.828 168.473 151.374 168.089 151.921 167.704C152.669 167.239 153.378 166.712 154.106 166.206C154.47 165.964 154.835 165.707 155.199 165.437L156.251 164.648C156.96 164.122 157.668 163.576 158.356 163.029L159.914 161.795C160.602 161.248 161.27 160.662 161.938 160.095C162.606 159.508 163.253 158.921 163.921 158.314C164.569 157.727 165.216 157.14 165.864 156.533C166.471 155.906 167.119 155.299 167.726 154.651C168.313 154.064 168.92 153.477 169.486 152.85Z" fill="white"/>
<path d="M169.243 153.295C169.082 153.471 168.92 153.646 168.758 153.821L168.11 154.489C168.474 154.085 168.879 153.7 169.243 153.295Z" fill="white"/>
<path d="M30.1141 148.823L29.8915 148.6L29.6487 148.236C29.8106 148.438 29.9522 148.641 30.1141 148.823Z" fill="white"/>
<path d="M192.718 114.015C192.961 113.165 193.224 112.336 193.467 111.465C192.577 114.683 191.545 117.921 190.33 121.159C190.533 120.673 190.695 120.167 190.857 119.661C191.261 118.629 191.585 117.577 191.949 116.545C192.212 115.695 192.476 114.865 192.718 114.015Z" fill="white"/>
<path d="M193.346 112.234L192.84 114.056C192.658 114.643 192.455 115.209 192.273 115.796C192.658 114.602 193.002 113.408 193.346 112.234Z" fill="white"/>
<path d="M191.302 118.71L190.938 119.702C190.573 120.734 190.169 121.766 189.764 122.778C189.521 123.365 189.278 123.931 189.056 124.498C189.244 124.053 189.433 123.594 189.622 123.122C189.804 122.656 189.986 122.171 190.189 121.685C190.573 120.714 190.917 119.722 191.302 118.71Z" fill="white"/>
<path d="M188.752 125.186C188.752 125.186 188.752 125.193 188.752 125.206L188.732 125.226L188.752 125.186Z" fill="white"/>
<path d="M196.523 95.2555C197.373 87.0393 197.191 78.8636 195.956 70.8092C194.681 62.7549 192.334 54.8423 188.752 47.2939C190.391 50.208 191.848 53.2435 193.143 56.36C192.961 55.935 192.799 55.5303 192.617 55.1256C193.346 57.2302 194.256 59.9217 195.046 62.9168C195.14 63.2946 195.241 63.6791 195.349 64.0703C195.444 64.4481 195.538 64.8326 195.633 65.2238C195.734 65.6286 195.815 66.0131 195.916 66.4178C195.997 66.8091 196.084 67.2071 196.179 67.6118C196.685 70.0402 197.11 72.5294 197.413 74.9781C197.697 77.4267 197.879 79.8147 197.94 81.9801C197.919 82.8907 197.919 83.7812 197.879 84.6716L197.818 86.0072L197.737 87.3429H197.697L197.434 88.0107L197.332 86.0072L197.171 84.024C197.231 85.0156 197.292 86.0072 197.312 86.9988C197.312 87.5048 197.332 88.0107 197.353 88.4964V89.9939C197.353 90.4391 197.353 90.8843 197.332 91.3296C197.231 96.8745 196.644 102.44 195.531 107.904C195.855 105.799 196.078 103.674 196.26 101.569C196.402 99.4648 196.503 97.3602 196.523 95.2555Z" fill="white"/>
<path d="M195.046 62.9169C194.256 59.9218 193.346 57.2303 192.617 55.1256C193.346 57.2303 194.236 59.9218 195.046 62.9169C195.14 63.2946 195.241 63.6724 195.349 64.0501C195.444 64.4414 195.538 64.8326 195.632 65.2239C195.734 65.6084 195.815 66.0131 195.916 66.4179C195.815 66.0131 195.734 65.6286 195.632 65.2239C195.538 64.8326 195.444 64.4481 195.349 64.0704C195.241 63.6791 195.14 63.2946 195.046 62.9169Z" fill="white"/>
<path d="M197.434 88.0107L197.697 87.3429H197.737L197.434 88.0107Z" fill="white"/>
<path d="M194.135 92.2807C194.439 87.4845 194.439 82.0205 193.892 76.5161C193.386 71.0116 192.314 65.4869 190.917 60.5693C191.707 62.5121 192.577 64.8798 193.346 67.5511C194.115 70.2224 194.803 73.1972 195.329 76.3137C195.855 79.41 196.219 82.6681 196.422 85.8858C196.624 89.1035 196.624 92.2807 196.523 95.2556C196.159 98.7768 195.612 102.258 194.864 105.698C195.025 104.726 195.208 103.755 195.329 102.763C195.39 102.278 195.471 101.792 195.531 101.286L195.693 99.8291C195.734 99.3839 195.815 98.3316 195.896 97.3197C195.956 96.3281 195.997 95.3972 195.956 95.2151C195.936 95.1139 195.896 95.3163 195.794 96.0246C195.693 96.7126 195.531 97.9066 195.248 99.7684C195.167 100.241 195.086 100.753 195.005 101.306C194.897 101.86 194.789 102.453 194.681 103.087C194.439 104.382 194.135 105.839 193.73 107.519C193.649 107.944 193.528 108.369 193.427 108.814C193.305 109.239 193.204 109.705 193.062 110.17C192.82 111.101 192.556 112.093 192.233 113.125C191.929 114.177 191.565 115.27 191.18 116.403C190.978 116.983 190.769 117.57 190.553 118.164C190.351 118.771 190.108 119.378 189.865 120.005C189.723 120.43 189.541 120.855 189.379 121.301L188.853 122.596L188.307 123.871C188.125 124.296 187.942 124.721 187.76 125.146C187.376 125.996 186.991 126.846 186.566 127.675C186.364 128.1 186.182 128.505 185.959 128.93L185.332 130.164C188.104 124.579 190.148 119.034 191.565 113.752C192.981 108.47 193.73 103.452 194.074 98.9387C193.575 101.704 192.961 104.436 192.233 107.135C192.395 106.285 192.577 105.435 192.718 104.585L192.941 103.33L193.123 102.055C193.406 100.031 193.71 97.6638 193.933 95.0127C193.973 94.5675 193.993 94.1223 194.034 93.6771C194.074 93.2116 194.115 92.7664 194.135 92.2807Z" fill="white"/>
<path d="M185.534 123.891C187.7 119.074 189.46 114.096 190.796 108.996C192.779 101.327 193.73 93.414 193.669 85.5013C193.609 77.6089 192.455 69.6962 190.27 62.1073C189.642 59.7801 188.914 57.4933 188.064 55.247C187.214 53.0074 186.263 50.8084 185.21 48.6497C184.846 47.9415 184.502 47.2129 184.118 46.5249L183.551 45.4523L182.964 44.4202C181.305 39.4824 179.443 35.1921 178.229 31.9542C182.256 36.6492 185.797 41.7894 188.752 47.2939C192.334 54.8423 194.681 62.7549 195.956 70.8093C197.191 78.8636 197.373 87.0393 196.523 95.2556C196.624 92.2807 196.624 89.1035 196.422 85.8858C196.219 82.6681 195.855 79.41 195.329 76.3137C194.803 73.1972 194.115 70.2224 193.346 67.5511C192.577 64.8798 191.707 62.5121 190.917 60.5693C192.314 65.4869 193.386 71.0116 193.892 76.5161C194.439 82.0205 194.439 87.4845 194.135 92.2807V92.3009C194.115 92.7664 194.074 93.2116 194.034 93.6771C193.993 94.1223 193.973 94.5675 193.933 95.0127C193.71 97.6637 193.406 100.031 193.123 102.055L192.941 103.33L192.718 104.585C192.577 105.435 192.395 106.285 192.233 107.135C190.776 112.497 188.833 118.144 186.243 123.81C183.632 129.476 180.374 135.143 176.468 140.505C176.306 140.735 176.138 140.957 175.962 141.173L175.476 141.841C175.132 142.286 174.809 142.732 174.444 143.157C172.239 145.969 169.851 148.661 167.321 151.211C164.731 153.842 161.938 156.29 159.044 158.577L158.174 159.043L157.304 159.468C158.073 158.901 158.801 158.274 159.55 157.687C159.914 157.383 160.278 157.059 160.643 156.756C161.007 156.452 161.371 156.149 161.736 155.825L162.808 154.874L163.334 154.388L163.86 153.902L164.913 152.911L165.925 151.919C167.301 150.584 168.616 149.187 169.891 147.771C171.166 146.334 172.421 144.897 173.594 143.379C174.788 141.902 175.922 140.364 177.035 138.806C177.561 138.016 178.107 137.227 178.633 136.418L179.402 135.224L180.171 134.009C182.175 130.751 183.936 127.351 185.534 123.891Z" fill="white"/>
<path d="M174.444 143.157C174.809 142.732 175.132 142.286 175.476 141.841L175.962 141.173C176.138 140.957 176.306 140.735 176.468 140.505L175.982 141.173L175.476 141.841C175.132 142.286 174.809 142.732 174.444 143.157Z" fill="white"/>
<path d="M194.135 92.3009V92.2807C194.115 92.7664 194.074 93.2116 194.034 93.6771C194.074 93.2116 194.115 92.7664 194.135 92.3009Z" fill="white"/>
<path d="M190.27 62.1074C189.379 59.0313 188.347 55.9958 187.133 53.0614C185.899 50.1068 184.502 47.2129 182.964 44.4202L183.551 45.4523L184.118 46.5249C184.502 47.2129 184.846 47.9415 185.21 48.6498C186.263 50.8084 187.214 53.0075 188.064 55.247C188.914 57.4933 189.642 59.7801 190.27 62.1074Z" fill="white"/>
</g>
<path fill-rule="evenodd" clip-rule="evenodd" d="M152.912 132.512L152.588 132.957C152.184 133.281 151.678 133.483 151.152 133.544C147.253 134.394 143.354 135.237 139.455 136.074C138.321 136.377 137.107 136.155 136.176 135.466C134.922 134.556 133.626 133.726 132.372 132.836C131.765 132.417 131.178 131.979 130.611 131.52C130.186 131.196 130.004 130.63 130.186 130.124C130.254 129.922 130.348 129.733 130.469 129.557C131.738 127.561 133.114 125.638 134.598 123.79C134.881 123.425 135.286 123.162 135.731 123.081C136.46 122.94 137.168 122.737 137.896 122.575L148.622 120.046C148.865 119.985 149.128 120.026 149.35 120.147C149.404 120.174 149.458 120.194 149.512 120.208L149.614 120.268C149.627 120.295 149.647 120.322 149.674 120.349C150.302 120.896 150.727 121.645 150.889 122.454C151.536 125.274 152.204 128.087 152.892 130.893C153.074 131.419 153.074 131.986 152.912 132.512ZM134.011 131.156C134.658 131.581 135.529 131.419 135.994 130.792C136.419 130.144 136.257 129.274 135.63 128.829C134.982 128.384 134.112 128.545 133.667 129.173C133.222 129.82 133.384 130.691 134.011 131.156Z" stroke="white" stroke-width="4" stroke-miterlimit="10"/>
<path d="M121.059 109.401C122.354 108.187 124.257 107.519 126.058 107.964C127.09 108.146 127.94 109.098 128.122 110.109C128.648 112.841 127.272 115.351 126.118 117.658C124.58 120.592 122.901 123.567 121.99 126.744C121.788 127.513 121.626 128.303 121.606 129.072C121.565 130.104 121.666 131.237 122.375 131.945C122.86 132.33 123.548 132.148 124.196 132.026C124.601 131.945 125.005 131.857 125.41 131.763C127.029 131.399 128.628 130.893 130.227 130.367L130.287 130.488C128.891 131.46 127.353 132.229 125.734 132.836C123.69 133.584 121.626 134.313 120.493 131.804C119.46 129.213 120.594 126.279 121.767 123.952C123.407 121.017 125.815 118.467 126.503 115.088C126.806 113.59 127.13 111.87 126.887 110.393C126.746 109.705 126.442 109.239 125.754 109.017C125.046 108.774 124.277 108.713 123.488 108.814C122.698 108.915 121.909 109.179 121.14 109.523L121.059 109.401Z" fill="white"/>
<path d="M21.798 223.062L21.84 223.482C21.84 224.63 21.658 225.61 21.294 226.422C20.93 226.702 20.356 226.926 19.572 227.094L26.586 247.842L30.576 248.346C30.576 249.494 30.254 250.712 29.61 252H19.404L19.026 249.69C20.202 249.242 20.972 248.948 21.336 248.808L19.656 244.062H10.206C9.366 246.554 8.918 247.856 8.862 247.968L11.76 248.346C11.76 248.934 11.648 249.62 11.424 250.404C11.2 251.16 10.99 251.692 10.794 252H0.588L0.21 249.69C1.47 249.158 2.604 248.766 3.612 248.514L10.668 226.926C8.792 226.646 7.378 226.282 6.426 225.834C6.426 225.022 6.552 224.308 6.804 223.692C7.392 223.496 8.764 223.272 10.92 223.02C13.104 222.74 15.176 222.6 17.136 222.6C19.124 222.6 20.678 222.754 21.798 223.062ZM16.38 234.612L15.162 229.068H14.742L13.398 234.864L11.424 240.114H18.438L16.38 234.612ZM42.8508 222.6C47.7508 222.6 50.9988 223.3 52.5948 224.7C54.0508 225.96 54.7788 227.906 54.7788 230.538C54.7788 234.626 52.6508 237.412 48.3948 238.896L54.4428 248.01L58.0548 248.388C58.0548 249.592 57.7328 250.796 57.0888 252H50.9988L42.7668 239.442H41.4228L41.2968 248.01L44.3628 248.346C44.3628 249.494 44.0408 250.712 43.3968 252H33.0228L32.6448 249.69C34.3248 249.018 35.5008 248.612 36.1728 248.472C36.1168 245.028 36.0468 240.87 35.9628 235.998C35.8788 231.126 35.8228 227.864 35.7948 226.212L32.3088 225.162C32.3368 224.518 32.4628 223.664 32.6868 222.6H42.8508ZM46.1688 227.094C45.3008 226.898 44.1388 226.8 42.6828 226.8H41.5068C41.4508 230.664 41.4228 233.562 41.4228 235.494L43.4808 235.452C45.1328 235.424 46.4348 235.088 47.3868 234.444C48.3668 233.772 48.8568 232.484 48.8568 230.58C48.8568 228.676 47.9608 227.514 46.1688 227.094ZM71.1693 248.136C75.5093 248.136 77.6793 246.582 77.6793 243.474C77.6793 241.206 77.1473 239.778 76.0833 239.19C75.0473 238.574 72.6953 238.266 69.0273 238.266L68.8593 248.052C69.8113 248.108 70.5813 248.136 71.1693 248.136ZM70.9173 234.822C73.0733 234.766 74.5993 234.486 75.4953 233.982C76.3913 233.478 76.8393 232.428 76.8393 230.832C76.8393 229.208 76.3213 228.13 75.2853 227.598C74.2493 227.066 72.6813 226.8 70.5813 226.8H69.0693C69.0133 230.328 68.9853 232.988 68.9853 234.78L70.9173 234.822ZM70.9593 252.042H60.5853L60.2073 249.732C61.6633 249.144 62.8393 248.738 63.7353 248.514C63.7353 248.43 63.6093 241.024 63.3573 226.296C62.9093 226.184 61.7473 225.82 59.8713 225.204L60.2073 222.642H71.8413C75.1733 222.642 77.7633 223.286 79.6113 224.574C81.4593 225.862 82.3833 227.724 82.3833 230.16C82.3833 231.336 82.0613 232.61 81.4173 233.982C80.8013 235.354 80.0873 236.166 79.2753 236.418C80.5073 237.09 81.4733 238.028 82.1733 239.232C82.8733 240.436 83.2233 241.822 83.2233 243.39C83.2233 245.966 82.1733 248.052 80.0733 249.648C77.9733 251.244 74.9353 252.042 70.9593 252.042ZM98.9264 248.052C103.574 248.052 105.898 244.482 105.898 237.342C105.898 230.202 103.574 226.632 98.9264 226.632C96.9104 226.632 95.1464 226.94 93.6344 227.556C92.3464 230.244 91.7024 233.366 91.7024 236.922C91.7024 240.45 92.2344 243.194 93.2984 245.154C94.3624 247.086 96.2384 248.052 98.9264 248.052ZM98.9264 222.096C103.602 222.096 106.892 223.328 108.796 225.792C110.7 228.228 111.652 231.966 111.652 237.006C111.652 240.17 111.246 242.872 110.434 245.112C109.622 247.352 108.25 249.144 106.318 250.488C104.386 251.832 101.922 252.504 98.9264 252.504C94.3624 252.504 91.0444 251.23 88.9724 248.682C86.9284 246.134 85.9064 242.424 85.9064 237.552C85.9064 227.248 90.2464 222.096 98.9264 222.096ZM96.0704 218.064L102.706 212.562C104.358 213.878 105.24 215.096 105.352 216.216C104.624 216.916 103.7 217.644 102.58 218.4C101.488 219.156 100.186 219.926 98.6744 220.71C97.7784 220.038 96.9104 219.156 96.0704 218.064ZM131.874 244.356C132.546 244.244 133.05 244.188 133.386 244.188C133.75 244.188 134.52 244.286 135.696 244.482C135.808 244.706 135.962 245.42 136.158 246.624C136.382 247.828 136.494 248.808 136.494 249.564C136.494 250.292 136.41 251.104 136.242 252H115.872L115.494 249.69C116.866 249.13 118.042 248.724 119.022 248.472C119.022 248.388 118.896 240.982 118.644 226.254L115.158 225.162L115.494 222.6H126.414C126.386 222.6 126.386 222.628 126.414 222.684C126.47 222.74 126.526 222.866 126.582 223.062C126.666 223.23 126.75 223.44 126.834 223.692C127.002 224.14 127.114 224.882 127.17 225.918C125.742 226.142 124.804 226.282 124.356 226.338C124.244 235.998 124.174 243.208 124.146 247.968H130.95L131.874 244.356ZM150.681 222.6C150.653 222.6 150.653 222.628 150.681 222.684C150.737 222.74 150.793 222.866 150.849 223.062C150.933 223.23 151.017 223.44 151.101 223.692C151.269 224.14 151.381 224.882 151.437 225.918C150.009 226.142 149.071 226.282 148.623 226.338L148.413 247.968L151.311 248.346C151.311 249.494 150.989 250.712 150.345 252H140.139L139.761 249.69C141.329 249.046 142.505 248.64 143.289 248.472C143.261 246.82 143.219 244.496 143.163 241.5C143.079 234.78 142.995 229.698 142.911 226.254L139.425 225.162L139.761 222.6H150.681ZM173.104 232.092L171.802 232.05L170.584 227.01C168.96 226.73 167.742 226.59 166.93 226.59C165.334 226.59 163.542 226.912 161.554 227.556C160.966 228.648 160.504 230.048 160.168 231.756C159.832 233.464 159.664 235.074 159.664 236.586C159.664 244.314 161.89 248.178 166.342 248.178C168.246 248.178 169.758 247.898 170.878 247.338L171.76 242.214C173.524 242.214 174.868 242.312 175.792 242.508C176.24 245.56 176.464 248.038 176.464 249.942C175.792 250.446 174.434 251.006 172.39 251.622C170.374 252.238 168.386 252.546 166.426 252.546C158.082 252.546 153.91 247.394 153.91 237.09C153.91 232.19 154.918 228.466 156.934 225.918C158.978 223.37 162.226 222.096 166.678 222.096C168.89 222.096 170.85 222.418 172.558 223.062C174.07 223.622 175.358 224.238 176.422 224.91C176.422 226.814 176.212 229.11 175.792 231.798C175.008 231.994 174.112 232.092 173.104 232.092ZM199.683 223.062L199.725 223.482C199.725 224.63 199.543 225.61 199.179 226.422C198.815 226.702 198.241 226.926 197.457 227.094L204.471 247.842L208.461 248.346C208.461 249.494 208.139 250.712 207.495 252H197.289L196.911 249.69C198.087 249.242 198.857 248.948 199.221 248.808L197.541 244.062H188.091C187.251 246.554 186.803 247.856 186.747 247.968L189.645 248.346C189.645 248.934 189.533 249.62 189.309 250.404C189.085 251.16 188.875 251.692 188.679 252H178.473L178.095 249.69C179.355 249.158 180.489 248.766 181.497 248.514L188.553 226.926C186.677 226.646 185.263 226.282 184.311 225.834C184.311 225.022 184.437 224.308 184.689 223.692C185.277 223.496 186.649 223.272 188.805 223.02C190.989 222.74 193.061 222.6 195.021 222.6C197.009 222.6 198.563 222.754 199.683 223.062ZM194.265 234.612L193.047 229.068H192.627L191.283 234.864L189.309 240.114H196.323L194.265 234.612Z" fill="white"/>
</svg>
